<mxfile host="Electron" agent="Mozilla/5.0 (Windows NT 10.0; Win64; x64) AppleWebKit/537.36 (KHTML, like Gecko) draw.io/26.0.16 Chrome/132.0.6834.196 Electron/34.2.0 Safari/537.36" version="26.0.16" pages="2">
  <diagram name="IdentityProvider機能" id="i7SlL4eXcrCsqkNCfs71">
    <mxGraphModel dx="2074" dy="1196" grid="1" gridSize="10" guides="1" tooltips="1" connect="1" arrows="1" fold="1" page="1" pageScale="1" pageWidth="3300" pageHeight="2339" math="0" shadow="0">
      <root>
        <mxCell id="0" />
        <mxCell id="1" parent="0" />
        <mxCell id="mLVBz9L8hG9vox8QYbwN-2" value="" style="sketch=0;aspect=fixed;pointerEvents=1;shadow=0;dashed=0;html=1;strokeColor=none;labelPosition=center;verticalLabelPosition=bottom;verticalAlign=top;align=center;fillColor=#00188D;shape=mxgraph.mscae.enterprise.server_generic" vertex="1" parent="1">
          <mxGeometry x="50" y="60" width="24" height="50" as="geometry" />
        </mxCell>
        <mxCell id="mLVBz9L8hG9vox8QYbwN-3" value="" style="sketch=0;aspect=fixed;pointerEvents=1;shadow=0;dashed=0;html=1;strokeColor=none;labelPosition=center;verticalLabelPosition=bottom;verticalAlign=top;align=center;fillColor=#00188D;shape=mxgraph.mscae.enterprise.server_generic" vertex="1" parent="1">
          <mxGeometry x="50" y="120" width="24" height="50" as="geometry" />
        </mxCell>
        <mxCell id="mLVBz9L8hG9vox8QYbwN-4" value="" style="sketch=0;aspect=fixed;pointerEvents=1;shadow=0;dashed=0;html=1;strokeColor=none;labelPosition=center;verticalLabelPosition=bottom;verticalAlign=top;align=center;fillColor=#00188D;shape=mxgraph.mscae.enterprise.server_generic" vertex="1" parent="1">
          <mxGeometry x="50" y="180" width="24" height="50" as="geometry" />
        </mxCell>
        <mxCell id="mLVBz9L8hG9vox8QYbwN-5" value="" style="sketch=0;aspect=fixed;pointerEvents=1;shadow=0;dashed=0;html=1;strokeColor=none;labelPosition=center;verticalLabelPosition=bottom;verticalAlign=top;align=center;fillColor=#00188D;shape=mxgraph.mscae.enterprise.internet_hollow" vertex="1" parent="1">
          <mxGeometry x="130" y="129.5" width="50" height="31" as="geometry" />
        </mxCell>
        <mxCell id="mLVBz9L8hG9vox8QYbwN-6" value="" style="endArrow=classic;html=1;rounded=0;dashed=1;endFill=1;startArrow=classic;startFill=1;" edge="1" parent="1" source="mLVBz9L8hG9vox8QYbwN-2" target="mLVBz9L8hG9vox8QYbwN-5">
          <mxGeometry width="50" height="50" relative="1" as="geometry">
            <mxPoint x="140" y="70" as="sourcePoint" />
            <mxPoint x="1070" y="580" as="targetPoint" />
          </mxGeometry>
        </mxCell>
        <mxCell id="mLVBz9L8hG9vox8QYbwN-7" value="" style="endArrow=classic;html=1;rounded=0;dashed=1;endFill=1;startArrow=classic;startFill=1;" edge="1" parent="1" source="mLVBz9L8hG9vox8QYbwN-3" target="mLVBz9L8hG9vox8QYbwN-5">
          <mxGeometry width="50" height="50" relative="1" as="geometry">
            <mxPoint x="72" y="104" as="sourcePoint" />
            <mxPoint x="140" y="141" as="targetPoint" />
          </mxGeometry>
        </mxCell>
        <mxCell id="mLVBz9L8hG9vox8QYbwN-8" value="" style="endArrow=classic;html=1;rounded=0;dashed=1;endFill=1;startArrow=classic;startFill=1;" edge="1" parent="1" source="mLVBz9L8hG9vox8QYbwN-4" target="mLVBz9L8hG9vox8QYbwN-5">
          <mxGeometry width="50" height="50" relative="1" as="geometry">
            <mxPoint x="84" y="155" as="sourcePoint" />
            <mxPoint x="140" y="155" as="targetPoint" />
          </mxGeometry>
        </mxCell>
        <mxCell id="mLVBz9L8hG9vox8QYbwN-15" value="①" style="text;html=1;align=center;verticalAlign=middle;whiteSpace=wrap;rounded=0;fontSize=17;" vertex="1" parent="1">
          <mxGeometry x="100" y="90" width="60" height="30" as="geometry" />
        </mxCell>
        <mxCell id="mLVBz9L8hG9vox8QYbwN-17" value="" style="swimlane;startSize=0;" vertex="1" parent="1">
          <mxGeometry x="210" y="60" width="210" height="140" as="geometry" />
        </mxCell>
        <mxCell id="mLVBz9L8hG9vox8QYbwN-9" value="" style="shape=image;verticalLabelPosition=bottom;labelBackgroundColor=default;verticalAlign=top;aspect=fixed;imageAspect=0;image=data:image/png,iVBORw0KGgoAAAANSUhEUgAAANIAAABFCAYAAAA/+ri5AAAgAElEQVR4nOy9Z5glV3Uu/O5QVadOPp1nOkx3T9RkSaMZRUYBIQklhIUBIcA2IlzuZ8AGrgPYBn82cMH+bIzJAgsQOSjnHEZ58vTk6Zy7T5/TJ1fYe30/qro1I2aUkH197VnP00+H01W196699trrXe9am91HhJeTOgBf3jeAs7SH957ShSkuoAHs3nMAn5oo4dPrl+Pq+jg0gBPdKQpgW6V6/hd7J7/4bO/gKl/5AAMWJFL+H61c+rU/qLc+Ny0NYse5AQchzzlqDPjqs3vxyeYklnW2oQbAqlXxtad34Da7Dt9bvxhNbg3Vl+nLxmT8Zft6Uk7K6xX5Rt3IIaBKADvqbwQgxoHnJ3KnfuuBh2/aLuxFyo6BCQ4QYSY3g9sfePCT2c6WmdGVG//NqZQLnLFj7lvxFN7flkCHKd6opp6Uk/KGyxumSECgOEerAQMQq9XE5/cduHFbJLEIRiT4nBTAOBxpYHc0GRsusX9+SzGfajXl33paHXNDz5KwGIPCSTkp/3nlDVMkzQCfAXN2QwCs6vu4f8/+q4YnpjoRSYARQCAwFlgkxjhgSORyOeQO7dv4lxtX8rGKo+fuSUrBamqCa3C4b0Abn56YPOZ3GYkg39uL3N4eSNsOnkkExthvffd9H7FYDGvWrMEzTz2FH//ox7jy6mvQ13cEUgrM5vO46IIL0da5CLVKBRwMSivky6VjFhcpJRzHwe23347Fixdj9erVsAwT9959NzZfcAGWLF0K0hqvV4gIUkrYtg16hW37K0kmk8F3v/1tJDNpLOrqwuzsLJYuWYL7774Hph3BO699B5R67UucEALFUgkDw0OQ8tgpyAiwIhZ+85vfoKW+Eb29vbj8mqvR3zuAmZkZMMYAEDR5WLd+HXp27sHu3T345Kc/Bcdz0bNrN9INdZCGMf/ulK/glmrhtYBlmhgYGsLw6CgitsQFF56PLY8+hSvffjWGh4exa9cuMEJwrfIRiURxwQUX4amntqBcLoMLgTM2bcTqU1agWg2ciTdMkQQAE4BGYIlaAfzswBHsL1beNVnz6mBzIGwcoAHGAssEBkRMzEastsliuXHK9SeCEWXQ1SpSdXWwDBPsRA8+KSflP4G8akUiIkS4QBKAAua1Gwi2dAJAHJgHHXIAmQCT1Uo9fD9QHFDwIQ9XevDgb4wDVYfc7IzyvWCFI6XA06nAnzpKGGOIA7AA8Ij1O6+6J+WkvBHyqhTJJ0JrzEZ1etLePVP4FBdiRz3DHfwlygQEVulo65FKZ/YhX7sIRIHyhHrBwABigYIpD9KO5c9q75ju9zSIAbbrI7uwCXnBMLfR4YyhSXD09vWdO+3qyxZZ8ictttWjTurSSfk/LNJ4mQ8JQAxARyrx1u/0DV59Y2G2uy9XerOUYrI1k35Wm9EDsVjseyawP7Q385rpArhq1XKayOX/4baJqbfuLpe7WTQW+EhEoYUCyPeRrMzinETrY5n6DBwAgoAyC+5nAeAATCAOKT/02SNDG4cnsmcXPd3eHLMuV5bV09zauMOOyH/VNV0F57/Vj5NyUv69RY7kCif+0DAwPDG28siBge8/XKw1g5tALAWQbjpQdK6MMOfK3c8+s+msjesvHnE8h4PBVwrNiRiaTAM1AEsNPnDJssUP794/1E1KA4YJYqFvRBxQLt7c3XHgmqUd33kBgK+BFAd2lSrozxcQEwKMcxTGJ947ODT+jwccH5BRwGTo13odamrdgv37rutnxYGr1qz6RbZWO2F/Rl8uyHRSTsrvIHKqUDzuBxpAWyKe+OVo/v+9d2K2GekkuBABosQYSAI1z8O/DZfOm4j2f/NPG5N/VNIaUhPKhRLKTfWIxGzMOi50XcPnP7PGevD5F7Z+rGe8eLYWApoICzhDQ/PCL6p05keJeHR0CECEA/vzBewZHofyNRhnSNuR827qm/jzQUcBEfNF9E8wkADGKi4+3z/1zz/FoDlZqdwsTgBN/GNn5t9vJE/Kf2uRZyxoOu4HMQD9oyMrerK58/1UHZgIfRzGobUGZwzaMlDkJrZO5TcvaEkjSwQIBtfxoHwVQOGMoeQ4w+fZxs8vuejsI1s1XZJnrI5rqLUcL3RGY7cMS+lNIAAsLACLozYWdLXBFAI2gFue33b5gEaHjkTBmQ8NAicebhMBSqVwsOovaMvNrP94Z9PNE473ih0nInApIUzzJGBxUn5nkWnz+F5SC4AHs/kLBianM1jQBlIeGAd0aJE0aTDiICj43LAfLZbPLCj9DACACLW+IWxavAirDQkGDznPx7L2thfawLZGACkBWgj4LQjQvsPAHIaHBtMAmQYIQApAf252ta5pIC6hSQOMQ2sKEHQiMA2Q52NpzLSvqI9joHr8qFNZv6gwwrJQzc2g0NcLaVlv3IielP+WIk8UTtMAHKVsTcQAgHEGEIEzDk0EzoPvYAwE4p6Qhg8FEMHxFTpaGhGJRZDPV2ESgRMhV3Ugh8fojMWLPAMAn5lBvqEBFQA+gIQmREFwOccceOED8DS1hFoDxjlIB8+fC7iFASp4RLwSUpWOJ4yxAH23LEQ5R6X3CKq5GVjxBHDSKp2U30Gkq44fRZ8BsCKTfrgjnfzjQaXq55BqrQEGAU1+MDE1wWa8eIbBt+UEoElDtNTDqs+AAzhYqOHcySySloFP7ziEG0yGZTWn2eDkl4myv/IBgwDXAFIDI1iuXHQu6UYcgSIlACxOxbcwt3o6ASAdKM/RFin4QSNGutRMPirkH7dPk9xARAqUDuzH9h07cfqa1eCmdVKJTsrvLHLbyORxPyAAzan6PStbF24b6hu9GEkbAAMPaTOccWjlwfR9tNqpfRXXLVMqifiCpvmgLCGYo5ICyLumqfOI45/1/MNPXJSMRKY3LV/8Uy5xkCEgbftKQyiFPIA8gDnvrbu7++F0bv/78k4tzSJmYBFZaJEEB5VLSEWs0qJMpq/oE/wTgA2cCI2Og0KxgKnhYYgNp7+xo3lS/tuKjEQDIqkgwksDm55l5C5NmF8qxI2znvKcOKQJYgGbjnwNAcLvJ8XOD61o/+hkpQZbhJ8ddQ+lNKAJAsxkynv4C9liF5gJ5F007zj8ZzfEE/+z4NE3KGYhznlA2jtKNADLjtx2Vdq46eG8+sSQ5wHcgmYC0AoAoZ58/FVL02cvW9jyjW2lMjgMaK1BjCMhGKpKwSegwy1ASAkICcM6yYo4KW+cyM5MEh4BWnI0A5hCMHnnyKer1618+EhD86dyBw5fh2KhJVtzloGoVp9MHBrh5uELLzz7K90mhj2nBu04KCNgN/jhdzcVx+DsLEpMr5oplGxoAjMEyJCoOi5+dt/Tby1UKt9oXbIE7+9ohGWZyIRtiCBgSSxqqsc1F77pn3pf2GdnZmY25Arlzqqn61MRc0hxPtK8Zu3zp6/q/H5ufCbw3ZSGaRswlY/9NYXWqIUYZ5A1DWInWXsn5Y0XGZmehWICT4LDcks4O5OAGYuhgoCd4AAYKVe+/bHmum+f09m47IWZ/GeY4NtjwI8/MlGZmqlUkTdtWFIiWq3i6SN9H3BLpUwmmSzPGMa3ly9o1tqpYHg621qSkTh8FwQNMKBgmihwLIMdxeqFDUhLgepkdu3j5fLlhtbqzNbW2514fH/B9+HYkUGh6SP/2NFoe1R/yVip8o4lieh37p2YeewnNReuCwhNEKaAZXJEMzE05LP47EwJH21OY5EhQPmp/8PDfVL+q4rUgiNqGDg0XcQtzzyHpzatRmJJN4oAcnjROk1Ua2hZtebgm7vxfgXgge27kKvW0GUbYACKvm75zu7DH71535G/quRm0NzYgLIhu/7u4nO+uqGubmRnqbLXnj6U59qIs1gMynWwwHdx2uLu2xvr6nDakgX2kcGpa3/Yc+RjT2XzGyxf4dylS951xYZ1NyywjG0WFyhpYAaset4pK25dA9yqlY+pgSchYoAiQJgGUqkopBQh2gckBQfXBIUAXj8pJ+XfQyQAaCJEBEdzPAplSNQQBGQrhRISyTjABWq+guu5mDVMeCDYUuAjy7vQKgUcAp4bnbj2K7sP/RU6uoD2TsxqBTM79mlVdadiLfZXIq0Le693yt+8f6L890cchng0jvfXRX71kZVdn9le83Bb3+iyPUOT33tWRA0sWwgHHHcXSqe2DAz++YXp2HtnhjxntVOByTIoAvAAmI6DCoAiGOqhkbYllBRvSO7SSTkpr0WOy/6ei+FEy1X8+MgweHMT1jek4LoeYJjQWiNKGm9fsgiHqj7itoEpT3fYhkCVFOD5gDCgqzUMlmqLDyigkojh7HXr/2n/gZGdoyPTXQ3pVOGUdZ13tgg4CVbBY0/taRICBiIm4Huhk2RhcHxsyeOjTmOF8eF6QyDWnJpvZ1lrnAGNWaGxq1TE2yICo/8x43ZSTsoxclxFsgFWBZC0LXpoeAJdCxqR6GpHTQeFTDzGIToXIccJcVsixQFYwquCAUIAmgDO4QsTliWzjSxgdOcYqlXHuUtrDc/z4Fd97LYYfjJRRndXlx7I5YDJCcAI7+MpxJqbvOaY6ZQ0gfse+hlH+1zmY8TGmmVdGJ8uYHfVwe/FYvOLwEk5Kf+RcozbQETocVy2tX+QCwCMc6RMA0z5yAuJ3YbENgAuY1iSTGKFFGgSDB4Dzmpu+NYNzanvyoFeLJgeh9l7GNdlkj+/YGHTvzIOpMM09KMnuckZxjyFx/NVmPH4C8uZ+p/rsiOVaHYS9ZNDWDUzMtsdjfy1Xd+YXdTUCHvZSgy1LITNGDwA01LCq8ug7CvYjIEzzm0Eym4D4Jyxkwj3SfmPkHmLRABiEQvtlfKZT4+N/cng0EBkY0PTF9Kx6DMEBhNAFkF27BIEZbr6HA//fHgIf92chO06Q3942oq/5WtlIjc1297SXHfkUqfyd7bvj5UBPPsP/xidnpy8OHrwYPwCy3K7u7rGiqv+7sk1cRN/v7oVZ1qisL878+3eZQvlHbnadSmtZi+tT/ykNRW/zygV8dndh9G1PoP6mI3bHIXllkAVgO350IwhaUeQn8nF7hjY/VWn5qwVlvXoVR0LPm9bRvGkLp2Uf2+RAMAZeFKwPz3i+DdcP5jP5Gq1Js6B5MzoRp/LwnuXipsBfEkCLg8v0gDKinA4V0RnXQQ3T87gR9wa/sO1iz64RRl2e0dTRYyOlSuuhxvf/951yWTq96rl6vWmYXQC8Kanp2ZSX/vyl8ubz/u3M5ub8246RYvrm9RsS/O/Zozqz9JEXnNDNNdeKcEkH2MVB22eD9IaI0ToRGDhGIA2yzjt52PZ733zYG9iWuvFpBUYd077arZyTUNbR39CiA8C6J3rNBFBGgbSmbQRi8VShmnO4ROcSIMxDiLNOONak+aMce17nkgkErW6+vpKLB6Dfh1FP44WrTUikUgknkhkIqZV45zn/jMGiLXWiEajSCSTGd/3WTqdnmH8ZCzupSKlEGwoO7P5kS3PfdxJ17eN+gCsoKJOWVMzc2vNj23Z+imxuPPeWCL+XNXzsKFrIbhpQAoOS4pUgZCaZtx9amiy8MG2BaW/WNRQ6gFQ9jXYzq1LDCbfNzQw9E7DslplwH4wZ/OFlsefePILruvY77722i+wsQkITSg0NOmWeGRyvcnwt9v2m9cKVXf5grqoEHxGCl4mME8ymg8Yc8O0xicmPrStMLwe3AQMM/hAg5Vcv3uqt6/7vumRG5a/6cy/vUiImmmaqK+vl6PDw9d9/7s3nlepVDcIwRUQcGIDJyv4QYfJ8CEZjzMuvCcee+zI9OTkM6lMxrMs64iU8iEi/aq1iohgGEYylUpdvWPb9uVjw8MXAOxQsVh8OplM3s4YG/td1IlCQrH5O6aHaK0Rj8dRV1d32pYnnrx8x46dF2it089vefpOyzSftCL2/b9DM//LiUSl2PTRQ+N3TkZTUWgCmytMwgBwAhkGtjp+or1U+ZuzopH3UbDDgwIgPXdZX7X2zIqth0xXK0pLo+hVq5+x6+L/tkgr6IXNOPzE411TE5PvjMTjrcQZOOeA1iApEI3akSOHDv3xjt27H1u3bt1TfGKSFjKBcn09mO+t0LXaTz41PLHsM0Mz4J5HZ7m1m6K29ScWI18pjQRjeK5Q+pNvjhVuQKY+mPrQCHisHCQ4KiB8N1f8X39ScUbGRye+Xq6Uo48++vCXJicm/qhQKMS4aUKwoAyLr3WQLi8EoDVUSIiVnEMpBZ8IpNTGiGm8IxKN01NPP7WtWJh909q1a3pLxeLNwPGRd8N4MVUlHo+LF7a+8NaBocEvMV83FPOzpiZ9diQSeee99957yvve977PmqZZer1KIIRAsVjEwYMHj3nua5VIJIL777//zK3btv1gYny8S42OGoxzcE3r6+rqfr12w2kSwN2v+wH/xUS6mhLZSiVKQoaFfsJ6c5grm8qAiIWtPfvO+cDiC9tWtDRnywAmfd+668nn3jdTVRmPCUAa8GZm4o/s7vlExFj30Gy1NggARqFwVtl1WqM8CQ5A66BcMVOAySU0E/X7Dh5aduqaNVvydhRxBby1MItv7ul7x66+4VO9WBye0ogQ8OQzz77jW5tO/RyTRvaJaYWkYSZ7p/Kne1II8KBWHlhoVihcFDTB41Js39u3ebPvfD07nT1lx/ZdZ9u2FYsnk2AhwqgZYGgNDjZP95sroawZYIBhDrnQjKTyPMxMTGwCx+n79u/f5jnOassyb2KM7QKCDF7TNMGLGo888OD8pDYsa/nI4OBfipq/0IzawbOUBgMivb29H3r88ce3mab5w9erSFprCCEQj8eD3LHXKclkMnXgwIELBwYGutOZjEQ4NgpgM4XZK/oPH5kWQtz9ep7BGPsvV15NTsFo9ueSTUmDgb9okebo24Ihp1iqpqmdAzsFgKrSrXfN5K737LpA4XwFbdp4VsTX1qarm6ue9yMAeBtj/cRYVXBuM6I5mwFTGPB9HwAczgWRECDTAuccMcbRw8XGohkDOAdjhBo30SvsBuKi0yed3V4qIiZl45DnrodpBPkdocyV+iKtwTiHywUOE1aMj48hl89vMAy5Zu5NSi7gkQaBIDgHp6B9GgSTi4D8CoCBIIWAp/yg/JgQsINrZblUOt00jNN//otfrHvb7739z1pbFrzg+R445/BcDz09PYiFhV8I1GJyuSRmR+GShgLBDFP4pZT27t27T2OM/fD1vtBarYaVK1fiwovfjFLx+GUEXkkSyQSeffrZJf39/X8Ui8c5EUHyuTIDgJQyUiqVrrn//vt/CeDh13JvrRTsWAwL29t/qzjk/80ibUYV4XtMC4G5HNWjLRIDA4HB0L62OStHEOxfLMZy7YIf2eO7i5hhAkKAXAdNbrm0Imb2F6vBxCalpi0hfE/5YJyDgUMQ4EEHkxX60c6OtsOuacFJ1yHuuYhbFtK+l0OlBGYlATAw8mEXy76ldUFxhrhSiHHh2sovMz1HRn2xzfMWiQgChKRWs4cO7jdqtdoyQ3BzbkV0SIMzQIBBaQ0VrpYCDF44ceb8MUcpcMYgEORdhSVcYEopiAjFcvnCX/zs51959zvf+efpTOZZ0zAhDQPRRBxKB0mJAMHV2p9blSUBPikg/L2Qz7/uwhJOrYb2RYtwyWWXolQsvm6LZBomsjPZFblcrr2hvp5zAD7pcGwByTny+XzTnj17znnbO6592HmZgjNHy9zarLVGzanhpXXe/28W2QyMS8nhUFBnLugsIXSRgq2Hr7G8bcFAjdihPcUKFsZsJA2R+9Cpa76w/dDQheM1H/AZ4qbAO1pS3/nDRY1PlF0XNS5x+62FgeUrVvyof2DgWiFlk2VZIKWgfB+e76u2toU9EcvaImJxGJyjHLHQZ5nY3JS6bddM/r17ai4ABltoXLWo8fFcLNrPOMdmaSEjxeSTnrPrnkplHeIZIExSJEZhPxjAOSqOjzOaM9vCAmAAAMFFWG439NsAMK0DZz30keZePA99JIYgu5GzoFoSGIMQgQUnHVgsrfX5t9x668eWL1328SuvvHJ6zcpVeO973oOvfeMbSCaTYX1MFhj68Fqmg3oYQghopfjrhgg4R7Vaxc6dO1GtVo8p4vlqhTEGxlnj4UOHPxK1o6bgQY2OucLuc7+TJqpWq0tI6ybHdSdfzWZtzupblgXX/a9F5JI8Fp39wNJFN974+NM3eAvbwDSC1ZEIxDjguUjk81i7Yc3Xd5e9ienJUXzglEVoMA0sXdb9ZLLgfs4Yn2zusC1jixcdPW/d+m8UNOFZYaCtVsZbPvHxnl/9zedu6ujocLO53Dtcx2lljFEsZueam5p+ePnlV3y9ZfP5JDVBcobdAF4oOrhs+ZJbWlz2PyKjE2esS8etR3OF2Q3nbLixD/AYgJUAbMA5k9GN63buO3NnPruUpZJBBi04wIIjYXSphHNtfmBpd8dP86Q4tBaMNFylIDmHoQlKaejQKkEplKpVaCJIBMX1yiyYACYT4IaEKzgkgm2gUgqKMUgE1/tEKFUqXdVq7YOmaX7RjtiwLRssBFoIRFyDJAGuUtCCwQiv9XwFJvjrdmyU1ojGYli/fj3KlcrrukcqmcTjTz7RfXD//uV18QQ8paGEgKHUfH8ZYzCE5KVi6ZrHH3/8lkQsduursX6aNOyIjWUrVrwuJf/PLFKZovKxhY0fLqxc0n3zTPFCchlgmcFqXnUBwfCRdUvvOH1B/f9XtWxqr0vAlAIKgKOUM1Wtfr6dCN9vrcP/ky2ghzRuH57FwboE3jQ6gmV2DBf/7y893/u97+/tHRratXP79g4wRpvOOP35K9/61odoyXIXnh/EdiyJ2YqP/ZMlxJTWp9SnvvWeOvtbm2I2zn7hAKbLVbTHbDAE6R0VAIst+fin1p3yqc+MF24bzGYBGQFMCfg+SLtYsaAZ71D5G6TrPMOFYQruEVFgVQJkkgGawEJLFY1Fc+1dnYeEYZQFYGmltOaMlK+inuM0FYqF1tlCiYNzWIYMDtYgAg99CMYYtFJnDQ4NVEbHRn81MTlxaHBwEJ7nzRXlJ845zRXKZDq4Vms9B/a87hnGADhODYP9A6i9yu3W0UJEKGcyRjE/u5kxZlII4DDSwSJwlLIIU2Iml4tNj4+tuvzd77p1cnISrxRfYmDgUkL9DiDIf1aRyvNQtWN6ycZNH130xJZLr6gzlm0ZGvuoCWBj+4J/ORxJ9LauXvqbVbakGQQJe0b45foKGcvEteuWI+fX8OHmJN9piPOPuJReHTeq6XjsEU68JgCkuheXV0ai/7bqlFUwIhGsvOQtICHm6yVoIkTB0BA1OhdkkmeNV53KexY2bK0HhvunZ1DwfAjDQBUhthF2YLZaQ6yp+R5m1L27fnKi45I0++v9YyOxjqbGQ7eW1DejC1sH3YnakyZp+D6Yr7kAlxAs2KsrpiC5hABHsVTAmjUr73zne65/XzyeRKVahJQGiBhm83l24NC+U7c9v+2carXvLVbEumgmn7cTtg1GgK8VNGOQjEEKgUqtetFvbrnl/Z1dXZ/1fR+nrFiJ0dERGKYJX6kgBZ9zCCJ4ygc4h8DvgGYxBsE5Crk89u/ugeu99q2TEALVSrV1eHDgo3bETjmkYXIOSQSPgupRIjxJxFEKhiG1Vy6eMz45dWp9Y/N2zztxGbSg3gehUn1tlpIxhlg8jkgkkjAMM8p4UNVQa7BYLFY1TbPwu6CTR0sqlUIul4NhGE0MDIwxcJ9x0zS9ZCqVtSIRFIvFYOv/EpHB0RUKU+XKgWbODnxuWRt6ulsfjABYlYje8ld9UxieLaJsB+kLGQQpDL0AZqXAn67sxllxGxOFWfQ9v/39jw5MfJmX3VjvEcP5/bj4XyvXrPruSwuccgB1hgQXfJ58l2TAjqHBpl9v6/lpr53eYHtV545k7NGO1uZ3REhXT09H4A8P47TODhDniCCsMGRZGJqe9t7c2Piz6998Nroj4rnB3OzihlRy17tc/fzPakDR8xAHEDDvdBBvYgIggGsWlBljDKSBRDRemBwd516T0r7nhFaEoVgsUq1a21atVrelM+mvrVix4osvvPDCx6vVqm2aBpgCpCZwwaFB8F0fxWKx/rzNm61YNOrs3r0b37nxu8hkMpwBnNNRVY3mKyQJEOnXRbolrWEYBpYuW4alK5a9ZkUiTcjUZXDo4KH2p597RqbTGVBYnUkDQZgAAWCiiSDAIExT9g+PXLarZ//P/vTPrtw+my+d8P6MMXiug109u151sRnbtuuUUst3bdt+ytR09spKuZxmQXwDCj7bvXP33tGR0Vts287W1dVtz+ZmoPVrGz1NGolEAoZpLnvisScWzORnrp2anDwFmhhnHD4pYcrZ2pbHH398oL/vkfb2jrFqrdb/0vDEPP7IAZQ9DwVpYHFL4y0SQKVWRa7mYEE4mE0I8pQ8BEl/JATWx22UAEw43jVf75/6h35p1ZkGh5tX9tCg88XGrsXTG5KpW7IAYnXJ+Nat21pN01AMauru08+dBRiEVqjnWLmtb/KmO0amz2BpDaaV3DpduvwK0Bc6U/ZfL4pbRVWYRTsRCAFymCtXMLX3AAqJOpxZH8P5iGEIeLQ7lXnUBfA2AE9MluCExSg4iHEQQBquAgzOYRCHpzR8riC4gAGDTw+Pi2q5olvaFwCcg8LrGQ/OSZqYmMCmTZv+oqOjI7Vz967/AUPAZgEaWVMKxBkMIUiArx0ZHl5lmua28YkJGIYBYkQCnAwWoICaASbjYERwlQq2mq9DPN/HgpYWXHXllZjJ5ZDgidd0vZQS5XI50zvQ9wEejdiMMxgK8JQG8aB8lGAcPgKQxQzKsMFjkrKzhTft3tnzi9HRkdoccHM8YYxBGC+fXjnHqDAt67S+vr5rHMe54cF777NgyowhJEzG4WkNxRmO7D+y2eT82lR9vXf7HXf886o1q2+OxezxVxuDIyIkYvHmF55//k2Tk5N/+eTjTy6GxRN2JAKTAnG+TE4AACAASURBVBR37syvvTt2XMItaxKMP0GErzU3Nz9mGAYqlQpY6CMf01GlNUoItm5RpeBpgjAkUMgjIk3waBSkNSb37kekeymqUiJhMIwUnTP6NerQ0BBMCMkxOjxWfzBfvbhrfNethb6+M3cf2P8XhdnZJVIKVZ4t39n+/La73e7uJ0ZSdbht6aq2nIcz0LwAZBggCFQVYdZxLnby7j9kNRU5gCoROAJmRaVahe0qdLW2YdgB8lagYEFJlKD+hKv1i3OTM4AzRUdB2ioMOgsQPAAuI3DbxMTEBDxodHZ3gnTgYFfLVSRTSZzb2Q3TMnHKypVfLJaKlwwODHTrSPTFQC4AzRhzfPes3bt2rpRSbpvOzsA0A/oSITiUDRS0Q7MXTzt83Vs7rWFIibb2djQ0Nr7myxOJBJ577rm6ndt3XpjOZOoYY/ADnB+MCJF4HKVyGVwThJQhjE1I2FE22N93/d333HlzV1f3o45zfN+MKFDWBQtbXqYLGo0NDdi+bfulo8PD/zo7k8vYsVhdPJ0KK1cFqKkZxva4ZTEO1lSqlHD7rbd+pffw4eUbNpz+NcM0d71Sf4kIVsTqzOdmP/jcs8/+gSGthXUNddAI0FrOGLjWEAiQSisSAWlq6tm18yo7Fj3z3rvu/Pp73vOeL2YyGTiOc+JjXRiAvOPhD1d14jtTBUQL0/j9VUvhIZwIuTy6PAfDmqC4Adv3nSQpFFRYjEsTTHKR4Dxb2Lf3jJt/+eufktaL0skYSCkM9g0tbmtpXrR2zZpJozh7YKBcrvBapTag/QhgABTse2M1Zzzu+C4Hw9vO3ISoEJjfZTMGadtoFhwlrwbfirzsRNREpBFAeoYQ8JWCxwBTCHAAJdLwmYbiAI+YmJ6aBmMcnd2d4ELAMCQuueRS1Nc3olwuobGpaWh6auqR3gMHu30rAmKAGYIOLjQUqKp812CkQdoHMQZGjGnSTAEwhAAjgqeDo2zmArOvZ2snhUC1UsGWJ7fg5XyV4wmBkEwkMDQ8fLkhZb3BBTyloASDKTj8Wg3LTzsd2VweYwN90ErNn5FlmQayuSxqvrv49I2nP5qbmTnhc5SvTtg2IkI6nca2bdvecsstt3zN4HxxLB6HFwI4hgjCFT4oQFsRHDfkQMM0DLQtXIiB/v73e55nX3rl5X/tel6v74cAj6JjUMJAiSJdhWLxQ9mJ8XdGI9GFEBwKgU+otIandaBALIgn+kQwOEc6mTA85bc+9MADX3Adx9q4adPnOeck526vKeCazdFgCEAxnUKacziDM8i7CoaUQQ0HziGERIIBrbZEijOUU/GnUqnUcNn32pTyIThDU3394NrW+mfu+efH/owpb1FDXT2IEUgKCGna0zO5S4d2bBttPvOsT1122vKDz/aOPrzn+Z1vdrk0QQyWJmf9upX3n9uQyuZ9hcV1aQCBknNgvtqr1AqSgroML3U7FQWwsA46yaCJMQpeAgBIHUwknwWUIKFf/OJSIj+dxeGag1wuh3POPhfSMOG5Lsx0BplkCoyxshdaSaEDVgQhiMEJYgCTRDwIdvOg8cQ0SFAQ71IU/C8Dg3qN+/t5YQyKCOVqBUowvFbfW0oTwxNjdU8/9dR18Xg8qihYlQ0VdKRSq41uOH3933EuxI9+8MPryuXymZJxxsKzfS3TEuXp/HXPPfbkQ7lcrv940DZjDPH6zAlhb9M00bOn58zHH3rkm1JTdyRqQ5MGp+BdqzCZ01SBGfcDzAFGOI4eAfFY3Jgan7jmsQcfql3z9rd/NBKJuIwxFItlDPT2Q0oZFDRNpeLF2fxV40OD15mRSAckB/ODncvcvBAhQ86dmychy8cPsEc01NVjy5anrk4kk4/W1dU9LhUPzGVUMNTZEZAQKCHYFnHOURe8J8QMAeXU4jWu2mtalyOMjTqa/AfHcri+rR7akA+d1ZS5qNUtfbPnUP/qlV1deyuZlo/sv+l75ECfmkokIEBwNYFYQBFyfJXJTozXvXfpkshgqTTZ3t36e+dnJ99z8+Ej/7vB10NvO3Xt37S1NN5d4UzPJkwMuR4Wci5d31uiAeHXahNRwaeDElwvErA5Xjw5MCUYErYNmzGUhCTJuU8gaK0hOYckwAuVUHAOEforHCHxlRP27NiJ2dkC8sUSzjvvHBQKBfi+D8914ThOAziDwQLr4ofolikkGBE0EWOa5hWcQqqRUARXB/ErMwwA+/T6yoVp30csHsdV11yN5oUtoNeokBE7AnVELclms7YdjUIBMLgA14CvfJiWNZzJpL8biVg+MazSoLOkEPC1gq8ZorYtR/sHLrQta+2KNWv6a8eJYRERstnscRnpRIR0JrNwb0/PW72asygZi6OmFYgxmOFiqUILYXIOVysozmBwDqkBRwe+puQCtmVFR4aGl8SjsbpkMjkOIkgmkEslIKVANBrD3p69Z+zasfPTtmG0as5CylqAIPs60CBTCHhaQfFgLCQC5FKx4H8ZAfF4fPFsoXCZUuopmUvEAQAX2wYuPv9M9IWdm/MhLAC2IRtmanzdD57eekFfsfYJcPbE4nj0UVGp3au50esCxZV1Kb3kgjP7CLgel0BLgEeB7I0/+vZSi0vfD6k40BohGgLNCdwwzjA50Do2wloga21rTvnFinM3PlkH5KpT2clCtYqZ+jQUYHzihX0dlwl9+cj4xFdrjJUk6R9f2N72mHDcZ2JRq48f1W6BANX746YE0HQOAOBnWjGftABj4OEJgh4wTwPSIHggKM5C3wkYGhiCU6uBC4FHHnkEfX29uPDCC7F69Wr09PSsP3To0LnxSAQe9PwpABwBkCAs08/U1WWlDDl6ROBMaKX1fN6FOIoiBE0Q/LUTGzjnEIxhYngUg0f6XvmCl4hpyEguP3sdN4ylYAyCAlagZgHt6LTTT9sxOjTM9+4/hHgsOePUPO1qnzPOIHQQuM87lQKzzOVNLQuSs7P5wjHLAQXZ1isXNkEI8VvKlEwmseWJJ1ZOjo39kYiY5DA9P44eAt4np4CnV6EA9JGaoJmGy1joa7J5GpNhGjXGiFPoHnDBYEVMSCERj0etUrm4Kleara+rqwO0htQMfugbzZ0P6amQY6kBzTQ8FoT4JHGocPPNGEvUKpU4tIasvMwRKIwxzDhO0iqVfvkvfWPnQ0iARQHCpZj1L8VzO77050sW3+g2xj424amqYRpeQooxhRcd/uaORf7g0JAPBM6kYRigudWXCFKIOh1YaSIAmlAk4IACQIZEpx3BWM3BRKl8faFc+cbni6UIeATQLA5GH77p8OiHGycLsz/YuPJ9ppW+nb9MahDjjBgLON1SSigVxn7mivZTyNVjDMQY+o/0oVquwBACMhyP8fEJEAGpVBr9/YMXjQyPdNSlU0GKBRGMgCYUbEukdNra24ZM04Tn+3BdF6Zp8mBeBJYJ4WpLRMHWWanXXDVMh1vyeDyOeDz+mq6VUmJ2dja1Z9eus6Vh2EDgbymtoQlwXHfojA0bvrd23VqXCROLFy+59/bbb/t4rebFBDGI0HexY9HYwYOHPrB6zZoHNpxx6o5i8VgonAGQc7liL5H6+nq4rttULJUaU5mM1EeP44vXV2Px+B2Lurr2l2YL9RMjIwsd5Z+qgE5TyGAcw7FMJBIlxtksENCuSqUSdmzfiUjEQiQSaZ7JZt8Vi0YNrfX8O0CIBgvOXMb4400tzb2pVDo7mZ1OT05MXMg4Wy65BCcOBQWlFThnz6865ZT70pmML/f3jx//5QBoTsblXYd7P37vwYHzWV0qYGKDBadQCAF4Lm7fvvsPuFY7upn/9WQsimRHK/hRrF4XxDWIcw1IsPktmKCADOtq5mluEJR/zLN9AI3pFCwA44f7m37wzI4/HhZmhMWiIB0AcASAYjamxsdS33mq+qXda9bsG5otHRIn2B01K82giTMCvPCMJ6kJmoItFiPAANOC4A33D6BUKMEwjbA0crDyNzU1Ye++fdFf/vwXV0suPh+NRuGTBicGDg5fBasilI+oadx92umn74rHYmCM4c477wwhPYIRwqtB3cAwH0ppMP7aKUI6zJ1KpFKv/M9HCQMghBDlSmWzVlqaQoIoRDoJgFKIJ1IzwrDGAIY1a1fD9f3n7rr7jvu4prdz9uI4RoQhprKTi7K5qRVWxNpRPIp5Hhx6oHBg3/7gOKCXQELJZNKcnJz6PW5IQ4S+paeCl8yVhlbKX7529dcuu+TSz919992u1kp0dHe1CtP4wL7dez7gKrdFB4syIqb52JvOv+C7Y5PTZSFmkJ3O4vbbbg+2u4HJ6RZg62JmRDAieHP0sMAHItM2H1qzZs2N4+OTd3mep87YeAaPJZKX/fimH/4Bj/J1rq51aV8hYlhbo/H4c3Y0+rRt21p21x0/3iABcNftfM5RH5pIZcDDFIOQ5gmQD5IR7I1HpTue/ZN7l9d9faJSQGXER7JtEUjIOcInkSbigs8dARO8QM7hE4EBTBMFfB1fQ2mNCIB02AYTQHV29ouHY6lTSUgw6HAXFKZ6+D5Q14BbPXnKjsNjH1mdtD9ZOUEaeJthkO95/tzWgjEWBFB14FGJYHWKHDnS21Apl13DNBjnHBwETsQYY1GlVEOpVPz7mdzMufFoLHBgQWHCYgjUEMEyzXJzU1Ov9n1VrVSCiHhwFA0TjLOAThM8d45eBACk9WuySHObpOaWFqxYuxqvBWkQhsRsfta6+667rjEMYx3nHL4O3rAQAtVqVZ264YznprK5qXvuexBr169FJBLx0pnMiFupzVOi5g5XiNp25PChQx9+4L4HHlRaT89trebGOpVIH5eR7rouiMhmYIxzHiBELLDwHEAylcxec801X+WcV1PpNJxqVZXK5b63XnD5FxJ2dHz7zp1nxlNJz6lUa+ede+499Q0ND4bWH5oI1UoVkYgVbHkIUCASXMzHB49+B02NTbsMKW8RIY0rYtswDOO2dLruUKY+8eHJyfGGdGPaa2po7M3m8t/0lZrSWkOe1pg+7iA3Afjlrp6zjgwONaKhGSAFFSIlc8rAiIIYi+LyYA3LZ2EcULkSqNaP7s4OLLFMcKWZYIz54WSdmyWuVtA8sG+CEfmuC2bHIewIEgh8lhoCH23/wOBmqgkglggSvzGXvDd3bhNAlRKuak/pr65ZiP6Kc9w+/eR+j3laSfAgFYKI4FAIOoAAy8L2nbsvamqov9kwpeMrGIxxZZBmrvINKY01Y2Oj1uTYSDQajUR8qPkUDD90jjkCFoAQxsMrV66+a9/O3RgcHsZd99+LTCYDAKSUJhX+rwSDpwMfiQPg7LVZJB0SVS+/5irkcrlj+HAvJwTAMCTKxVJ3bmZmuRCCO1pBhMFFpRUK1cpk5+JFvzzjzFNrpUIJgwMj8FxPb9yw6YFbh3/zfsZZMnALg3GMRqLo23Vg5dpT1nSefe6504XCi+cTcxYEs/v7+3+rLT5pTaSlwTk8HQS0OQVE4Zr2kTAMZRjGbKVSwZs2b8bWZ1/Arl07EI1GK4VC4V83n3/+d971nncbX/nil8qO48yn2yulMDOdDVzXucwAkOBCcJc0NA/mmQSDp3xwKcgwjMr05BRFY1EIw8T05BRa29vR0tKyt6/v4McvePNF4gMf/CD76Q9/6A898eR8H+SJzif2AAxVa6eUXM8CCxzxwHwAjMLQYaBNKDOe3KPk8rKvDkDEUCs4yA9PIN/UCC6FBmMaCMmdYaxkDlnjQjBNxCgag2pvQ9S24CM4nwkIHM4iN2bAaPFc29hc6HIuhRUApECesfpBlzDiHd9f54wTC9vCebANYyFVB+CQAiiXS539lVJnkGIRqL1kAZWEhAAPEw1JBVsUHkZ7GQWBSyEEPKWKrR1t+8HYVjAGCBZubzQYY0EqkiZwGTjec8CHCPwCdvzWH1+ICJ7vo2d3T2AdX21mbeikj4wMv1tKeaoKc61YSOZVroe6ujrHd73+kYFhEBE2bdoE07CQzU4/dMcdtz2mlbqShz4SB8CEgOawZnIzFw4NDuzO52edebibAC446jJ18H0PR4eeE8kkRSKRUaV1sDV5cSxgCIFKpRLfunXrmwTEPb19fWhrbUMyloJTrsJ1HTQ2Nrqcc9f3/fn+c8Exm5/F01u2IJVJzZtuxlnVc13leQqCIZiPIbROSrOJ8fFFiVS6uZqfnWhb2IqH77kPH/jwB3H5FZfh+98fQWtrq1Khv1urVeH7PpRSkJETjDMHsDSV2JqJRYs5hUSQeBbaxvlWEUA+ElrkNlhix2wImTErCqdWw8zoGGrK5wrEJRgkeEDYZMHPXCt4viIwRjydQiwa/a12pADUczoA0meEMwcIWzJPlmYAPB8Jz883MIUSTgA4BFA0AwUpDJJxCACeH1hHiUBpPBAgRRA7AOBS4JRKArRW8ABIFkDnvtZQDDAR/F7xvFwimXzwtE0bv69B0IaAZdvBNnIujYKCAJ4TplGYjIMTwfXVKzKoXyoagJAGzjrjTEjx6hWJC45KuWI/8chji13fhxQSBgG+IjiM4NRqtTede97tHa3t/bViFTt27MDE2BTWrFuHmVzWa2ttG+4f6IerAitmUGCVZSKW2rpjxx+Pjo390opE+ua2ckopRKNRXHnllWhoaDimnU2NjWrXtm13lMvl96fiCZAOKE/gHAYTcMvV5AP33f+ZtevWIZ1Ob49EIuNWxMIzzzwDxgOQ5uD+g4jFYohGbRiGiVqtBjti4ezzzj6GLmLb0b4De/c+3bvv0IXxaNyo+QrEASOwW1Su1k7lsvxpKxr9vmmavdKQNYBhYmIcV139NnR2dmFqYgILF7aiq6sb6XQasXgccs9MAccTCaCxvv6Z7tbWya3T5QSzOEABFjc3lQP4y4AwLHQod3Dm6G0FB6AcjIITIxB4WAuBgmsZ59CMwBkxkGaThSJ2KYbIS+L6EkBXR/sOayh3vaPoqK1deC8eEDYRTyIdixejbgWpE2xvOOcUOPPz5YICHpmaixuF4CdR2MZgVRRzNQY4h9Yq+JkxEAuGZC4dw/H8rDSNHU1NTb/wPW+/aZool0ro7e09Kq066LTWwUHSXFMQUMWL7/u1qBJjDNr3sHXrVkTtyKuOIXHOwTg/n7RayVmAWmoBkAoIqaVS0Vm2dOntDQ0N3v5DB3H4yGHc/8D92HjWJlz0lrd4F73lzXd/51vfvkZK2QJg/t1KzjGTzepNGze2L1q0aGB2dlYHJpjBVz62b9+O5cuXBwzqUJlyuRwampoGWxYs2FGt1VZbpiXZXDYJJ0hTolatnvPYo498Y93603bOTGe/mkwmRyK2eRBc49577sXS7mVY0LwAxWIZo6PDaGluhhVNIJ1edUy/M5n02PjI6M3FavWSaCKB8GAUgDNoTZyITs1ms9EUcMnY2Ng3pBRbk8nkLlkzauVKGdu2bkM2O4UzN52FK664EolEAlJKyMH88fP6NYCGeHxsc9L8l1z/4X/qZSkOKxbkzxCDZgRUqzjVKR385OmbPzHJNfzjvMP5pDUdVEKQnIe0mAB6FhzEGaFQrmJr0UPqJYpEANKx2A/O8kcu3l51LinE4gh2tjxUKg1MjuO6tgU//f0li248Ui3CPUHxHJ8UU2EcSTIGBYKnCYYMgBQ/DJAe3UYwBiM8yd0lFcRsEPgQPmOQkkMQQ7lWzdnx2HbLMH+utPoVEETrS6USnn/+edTV1YW1JBiUVvAoIM3y8DnEggDjaz2GkzMG5Xp46KFHsHbNSgjB8Ep3YAhS8Ht7j1xDWq0xBIcmDYcCywRXYfHi7uz0zPTuu+67D3v29mBhUzMWLFiAffv2Y1F3N5Tv32nHYs/C865WRHBJweACIuh3bGBg8INtbW27Gxobc8r35x6MYHWfwEx2Zj4zWWmFBQsW7Ozs6vrajh07buSGASM8I9glH4wzWIaAIeOdu3bt7CRfb1q3el2P41X/pbO7vb9acXfZURsaQO/hPsTSFhZ3tEEaBgqV2jFsitlCEctXrtxy8EjfY9mpqc3pZBLQx75rZlnL87kcspOTf5GJJ+0tW7b8RlrGjeecd+7W+pqjf/qTnyART2LVqlXzlCe5oq0JJxTG9bXxxd+NZ5Ir/35f34dV1QGJOfRDoy6TwQ3LT/3yuph5z4wfomgvEcUCS8QRQows9I0QUmOYABFDZPkSXBHCwMdpyPT6xvTn/2l/3/InJ3KdIAQMAKUApnHe6WsOfXpJ+yfqPXdykhkQJ8C9WGjQ5qwLlArIhhS0iR3VRgrbCHqRVCrCe8ztJg0KiJuTM9O6dWHrs+lM5qb87OzPQcGKXy6X0dPTg0QicRRaRZwBfG7bqBgDJxbeN7SSJ34jvy2+BuMMmXQaXUuWQUj9irrIGEM0Gmvas3NXgpSCNgLYW2oRMNwZIZFIjWx54smNY5NTclFHh9aez0FEpmWxW3/9Gy3ARNOCZu0g8NNkaEeDsw+s+r2795xz/vmbG05ZtTJXLpWOebbreWguFo+Z4EII97LL33qnr9X9B/buWyFtexEACB36bGGqScK2wbho2XtwX5NW3jrJsG1mtnjTurWnPlOuFPsM04BlRaAoOFEyYlrwNM0Tlz1PYenSZX0Xv9n53K9//at/rNRqp0UiEXAVvFvNgv6YQoAbRrujFB55+JEPRWP2FVqpW5Op1K1tbW0PmKZ5DAIpY+aJa58RgKQRrVaT6U9+bf2qf0pPTqw/XCq3m6ahDCEH/qVCPYmWpt7C7P/f2pcHx3Xc6X3d/c4ZDGYGN3jfIniIskhKIkhJlCnqsC1atrwbr2xLWnmdtRMntRsnTlWco1KbzaYqTsoue1XetddbjrxWFIm2KFknKZOWRZPiigcIXhABkASIGwQxwJzvdfcvf/SbAUmAB+z9VamKpGbe9Ov3uvt3fN/3G6tk0aY9Z5DBw3EOK4LAl8GdWksoZV5L5vuox4yXAABw3z2Qrh679/mm2oXDg6PrskTxeZ49eawk2w4n0z1+Mjk8OTIOyxLXvYjFLRKMa0RAUYtxWABCRVDcgBJFVEcpjxGaIgS52a1CJVGUElxpTI5Pwk9Xf/TJHTuetxh/o6Oj40h5coUQCMMQ7e3tSCaTlZiAQBCMw2asAm1xuADTGoEu+4m3YGTcYxZtGkZXgTCnae5NOTmccxz84MA/s8A2ETEESlfGJJUCtyz09vbdIYj+TyqdiimtyLYsBm2Ysql0mmzGVTFXyCjOTIwEU/tR3MB6HM7rBwcHHtags5PZbGXRyDBEbV0dNm1uRT6Xq/ixRITmpubhDw8f/nLXRx/9hzAItgnLus0RBkSqYE5f8w4pWJ7NXebVnf+oe6sS4p6Dhz54a25z49+7nvtW+T4ZAJubjSnUU+57JpNBvCp+cFNr61/99sCBb2Vyk3fUxKpBWhmQLAwsSEXxcF19HbjWc/a8vftfpBvq13uOszyVSr1mWVZv+blaN5MIDQHkgiC3yHc76m2rY+2a20RtdRWOdHQryuYQhDe+AteacYCpqCYAMo2UFREUB4gURfw23AizbA5BfXG571xsSPj7V69cbsVloPraTlM+DBECsG/yEirSTIM4wTRmJm40FsoQITCGbCHfwy2raNmWrUCcGGkQOBhTodaWcOzCvLnN/U31DefXtKza/VFn59E1q1Z/NDI8rEslk3ZnjKFQMAF6IpG4KrBmjBFporAcUwCREKXZEW9aRGIswvTRVW6g1hqO7WDp4mUolko3XI+WZeH5559fkQ2KC23LBo9iTgmC5gA0wXKsBMikjQWDgcWY7I6h2xABnMc5zN8lYOaRDK7QS1RV7du37+n77r3vH9I16ctlF4gDyGcmcKH7HOoaG1AqTLleExMTKJVKfYyxby9dsfxix5mOp8KAVrqeCx79bhjNlUWAZgRR5TucyDl75vQfjAwN1M6dN79RcPsnwNT0OBFa2OS1zPPJ5XJF3/d3Pfn5Pzq7/7f7/2fX2c7lMd9fJLipd+qIYGmyywRiQE1dLWQQrMuF4f/Ys2fPvTt27Pj3qVSqRykF6/5rJrn1BzNLqh2d+mNl5TQohdpF9bBraxFMTOC9738Xbjx+1QN2XVdzzrWGAXTalgXS2ohxMcCyOCNSfP7J9us/+ci+LQCMFVFrWxg8fFi+/uZbEELgcwB23fTbUXEYIMY5bMtCKCUki+gMACZzOWxqbX21u6vrO6Ojo8K2bRZBihgAHSrJLc+VyVRqcu78+ZnW++8r5UtFDA8PIwyCKVeFmV3/3Llz07XbCEyDWBlOVAa6Eplx3JBGQQSmdRTfXW2WbSMzkcHOn7+MdLrmulJcREAs5m8ISqWHdeR229xQSjQDOOMmM05UAXNyIgSmAFKB7ihEp3T0XRVRHcr3oznD+OVxJ1VdvWr+3Hn7K5sMACkVRgYGwcCQqqtBJYaKTEt9LpFMfv+pZ57ZffjQoX95ov1Ea8z3Vhg325yeghmktgRgc4bqqjjL54tbensuYuXqpZIz/gKiEjnD1YsJMItpcnIy3LJ5S9uZU6eeamhtva+3p+erl4ZHaizLWqeZwQcKZhjkxAx0yuPcU0Red3f353fu3Cm/9rWvfT0ej2d+b4U+xjmCQgFHd/0ccF1D6rtqVhTXdAVESE+BAQUxSAUCs/QtuzQAwC2TrlPlyOYWjcBIE4c2bFQWQYQIBMUAFUrUJJKZlkce6XrltdcwnsnAdabwYSzy06WUKJVKmMhkUCqVEPNjV31GSYX3339/ZsngiEZh0TVzwZjpAH+924lIbSjXSq6ZL8YYioUCBoYGsGTJYtMUboYl6TgO9u17b3sul1vuMAZGGqE23xeaYJY5M/QFYlBcQ145xmjMQptHEJC+ah7J7BSwGBDz/SXtJ08+1X3u3DEpZe7KsWYns7htVQt2PPEZTGQylfKA1hpKSQSl0uSypUs/HBkY+Prd99zdsu/X+/68t6dnPlOsTgu0UFSItwnQ3Dw/yxJuGBQ3d53tLG1pCu+ITgAAFl5JREFU3fSBJUSnLqNYALhcA1qaZFKU6Mjn8yiWSoMrFi78f5fHxt5buXLF9mPHjn0xN5mbY9v2GhUliIQGDMHdZFvTiSoM9vc/ufOllwY/+diOb/2TSF2SlMiOGBWZaXwTzkkTkRDcZJiiybaFgJISFEGENF13H55mLMKoWZZlYD23aJzzKRpFOW7jxl0wY7IQBoEd9+N4eNuDeHPPbuSy2Vn9BjBFGQAwbT4IZmfjmiLuksGIlU8iuo6KULloKKLFPJOZJEIMqWRyRveOCPB9vz6bzc4PQ6niriXKC4PBaPSpK3CFjACJKUAtKVVZmkKYGKIi+MJZhQYiIlqIJUTVRx0d6zbcdVesOpnMXakelEgmkc1m8eILLwBgmLg0hrvvuQcbNqxHfV0dLmfGkc1OQimVW7BgwYfCFn+aTKXq5zbO+XL7yROftxxnqcU5CQLTpEGRZBoY9wr5/IP79v36Sdu2/4Iivzqfy2HtHetw//0fx/M/+QmE7WLVylWImjqUYUqDiWT1Cw2NDa+vf2j9ll2v7voTIlooGLvd4hwhmbfXimLnmO/zMx0dG7c+mJv/+y2kqDre9oudgNJROvPqh8ylYgJgMpIFZkQQjCGMjn8OkGBs5pTfdcyKjtxQScyGT8qJM0naAosgQlqjBETqqQySFEJoFFUINx7D9gcfxN69ezE+Pl6hid+KDQ4PVegCMywkrbTWMqqnCVyhtGpgMdekCqLOGEpXqB3Xs6gdDXp7LqC7uwf2DJLARNSan5x8whFcmHiDR/EHEOgI+qU1JDOxTvl5BREagWlD+Q4gTZZTEYixyjwyAIqMzgPXUQbMth+tTiZ/prWW5U2AC4FcLoehkWHYtoPLI5eQz+aQbqxFIpHAgvkLYAkLnHMEQQCtVLZYLGbv3HDnXy5vWXns//7sxS94vnu7EHwJQLCYSUqAMZDmTk9P34o/+epXuWVZioiglUJ1KgkpQ0xOTCCeSCKRqMKFCxfwxB98DoMDgzh16hSUUpJzPlZdXf1qMpU6WtvQ8JXTp045SojlDBACwhwGEUDB4ry1vb39oWkzLdlNw92pz3KgMDEBVcjDtgQYn75z27atwYwGTRn6QWXlTvP3WZ9IWmvoKIN0I7GNa43zKYhQGf4PIILFRFCfyLeSUiIei+GBBx7Au3v2IJvLXeeqVxtFrl95EV0bqzDGhMltVECyFYXXGZVWI9fiVjcaJSVcx8XiRYumEM/RuKoT1fzt3e+szWWzDbZtQUep/PJcRGMoeI5jampRHEdEZnEQKnro5bPJtiyUSiUqSelbtm3q5FobQKsQEBAb2tradnz5j5/dWV2dkOU5910P53t7MDA8ZAqakaqUUhpSSniui7dffx07Hn88olIwOI4DxlihOpl82fW8AcsSP1dKwrGsyildUcoFSyQSiSrbtjPlZI/ruZBKQQhReTahlKiqqkK+kMeceXMhQwlhWZAyRBAEvXUNdT9YlF+E7s7OL8Vivim9mKp9Ge5mj46MNE1bSGk5M+BzJtOM4cQvXkZcma550HLaZzjnnIi4gEmRlqV+TV2JIVQ6Qqnd+olEjBkHXdPVeLtb+WZEo5iCtgBKExQjcDAYGL/5j6RCtR/Dww8+iN2/+hVGRy/BnwHGVDbGOEphUAFNmn+79kQiYhpkE0MYwaUEWAWqdKXSKgPMPc6ySAsAruvAdlxUyG1cQIbhai3VqpBUwJnliOiyJa1AWlFNvKp90dIlz4UECaII10uMc07KiERqUtrinCtoLTjnShHBtm05MDDweF9f3ydtx7EEAAeV+xPFXH5hsVC4DVofUZF7WHKLKJZKFf1vItO9w/M8OI4D13WhlILgHJOZDFzXx+bW1cjnCqhrbsAnHnvo6Pmu7sMnjrQ/alXFTIIn2gYDKUGMbZNKOSyKPS1LwLYEglIkRmpZcF2Xua5LrmeaN0gpcfRYG9avXw+tNJLJJNKpVP9YbOSXXMmva6WgI1hZWRkXnIFpJaYtpO3DF2f1wCRjBsx5nf8vODeq4syQ5cpYdsEFQqMxxwDNp6stXN9MGEEQlph1jMSFkGWEQRmgWVbKYUZlCJqmiqKhUojF4ti+bRtef+utG2pqSyUrJ9D1MG8EYoxxZghVCgxXKK3yys0BURqZs5nrczeyUJZQU1ePlavWoKzqk0qn8OMf/nhtX1/f55yYY+MKCBRnQK5YZCvWr3++tbX1b156ZRfSqdQt4fZyuRzuuusutLS09H7ve9/b3NjQUMd4pBsRbZFciA179+79w6bmpiOI4EKhksiXivB909TO9VxneGh43uj42L1DQ8NzVCjbtdZH4vF4f2ZiAlprxKuqAEUYGhjEnOa58kLXBUk8KmJrQzWvuHdEQ5yZ904IDssSUGSIpfF4PHHp0qXVPT09d42Pj1d1nD6zW2t9RggxyRhDsVhEsRhi28cfxKYtrXhHvBV8eOBAyY7FAaBMhwEvp1eI2LSFpGaF9IrQAjeYcKZJCGJCliFCkR9dplFwpphgioPdeitJizMwKBSlhJjFbs05ZyWtLOKGFaujGMliHLZmyGltumRcQTUHAKUk/KoqPPLoI9i3b9+0xRTFASY4lgqWJa5fWGaMlNZU1ojghAo8JdKL0GV4cDjbFRSZJSzk8nmc7TwLGQTQRGhqbnZGL422BhRYPreB6Hc5Z2BS61R1srumsfFsrlhEMpU0iO6baNQpZVSBJrNZ2K59vqmpMUuBrJNW1G8q0r8oyRCdF84v2fboI34ow4IlBEZHR3Hs2DHYto2qRMKvqko8/PquV78xOjG+xfE8MBlebGps7Ozs6vpGTW3tETCzqVwaG0MqmQYCseJY24m1wndAUTq8UtA2C+mA5zqhEByAUWt1PQ+9PRf8zPj4d4+1n9jU1n5ihWtb/M1f/vJfr7/7ru+na2v/njHWBwDCEhgfH8eRw4cxPDKyXVt2jEWxtdTKJLsiz8px/eK0hUTXw9f8jkZCKM2ZqkCCIiIdB8CIgXOLiPitw/8BkGYATAZLzCJJwRkjHpFAyjFHBawqzKYgoqLotbMQlEqojiewfduDaDvZHmXFzDWEELh0eRyBlOZEu+Hgo0etAWYZ4Q1OMOL/gmtNWkPrjVe8xBW0UvTnK29YExE3u64o+r7fSUR527YxNjaGCz29iEXkw7a24+v7L178Usz1GWPCUOFhYsJSKHV9Q8NLy5Yv35svFLB02VKcPH6iclrMZEopeL6PzWvXoqo6gXg83nXPPZt++sbrr38rnU6z8gmvySQnBGPLz587t2Nly8oXTWwIrLztNsTjcQwODd9+6MDBPysEpY2pVAoAgTN/3uXx8Xk/+tu/ff6Bbdu+6ThOe7yqqock2SMjI/M7Pup4RsqgMcaqKvGOOdBNNpaIxKEP/jHj+R6aGhtNz+BUSuzd86s/3X/w4B/PbZ4L0gCzOHzPazze1vaVJUuWphhjP/U873xtbe346TMdqZd27tyYrE48naxKVPMIOcDIJImYcQcH12/c+O60hVSi36/J8LWmSbEQmnGUYSSmuGUzDk0KUhIxJuRsykhgFhgTUWwxi4UExiyAyjGSzTlsjUi50yAuLOJGBHHaumYIi0XEHQ/rWtZgPDdpoCtKoSadxpnOjzCZzyGZTN4wptEMZClONqJuFMworYI0QqWIcXaPLfhjOqrPMMaIc8ZNpZ0R55zxiJmqAW0Li5PWyGZzlzs7u56Lxd1dUqlu17awZtUqNM1fiGQigb/78Y+XDA8Ne3WpFAIVKR0xBi01uG1bEGLkRPuJCU0ak5OTRvTQtmfM/AFAqVRCfX09Pv3pT2NychKpmjRGhoZfKpH6cwYWtzVDQCY97nCBsBTcsf/Ab7c+9vhjLwouEAYSSxYvRkNDA1544YWG7vPn7p8zZw44DPYwIA3YLphUq3752mt/N3/Zkp62traTQnP3xKkTq4YuDa1tSNdxLvUU1IoxQAMh6d4NGzbs6e8fgNYanWfOGtay66Qv9vV9obqmDowYHAIKEY2iyost6O0+94deMvHZ8+fPd+Qzuf5LY2NzbMddWcgXbN8SCCLKjM2MJxFICUV0rLGp6eS0WRK/ezOEGc1CpADDp9RFOUy2SP/OPxXFMAyz5BxEvwuqLEBVHlOUwVLcjGvG7YQxFMISbNtGMm6AqHV1dThw8AD6Bwfge/4N3VwzdFNMVVGloKy0CsMKFQBaNEMl9Qw2dcIJ8xWEkY/OYBIvxBkmMmO1R4f7/+3a21en4/H4tz3Pmxjs78fhD49gwYIF9dnLlx93PZerKChHdI8BKaqrSR984P77fn358mUwMFQ3xbFk4UIMDg5heGQErutecwsE3/eRrqlBW1sblFJwHAfpdHrojrW3v3a+s+uxuB+Ll91+YgyMM6hSsPHksfall0ZHuxKJasxfMB/jmQyUlJ7vOBlOlASPKCUmzQthW0gkEo1Dvf2NvV3nNzLO4bkuapIpqIjlikjDQzNuqt1gx1avWr0zmUri0ugo9u7dC9u2IbXyQik9C+ZZB9GElt9Hy3XmlwoFnDl1avHJUEMIDtf3YdlWVGuMPJjopA0LwdCmTa3vF3K57LSFZM8i/X0r5jBOgjGSIBAnuDAAzbJGmCVErKziMivT2pAEZ/EVTgSltWDMdIxQkdKqLTgEGSpBSIrLCOZyPZNaQmmFwb5+9PT24t19+1AVjyMei+FmaXyGGyut6rLKJ2OwBL9ijAKCaIpIWNbCi+ICz7XAYM8ZGhj47Llz535zaXR0t+v5WLtmHT784OD67o6Oz7ieKyRMS08QoQRCqBXzXPu9j627/ciVrWASiQTe+8376O29OG0haa0Rdz3MmTMH/X19Fdequbl5qLGu4Rcn247v8GM+RATG1aTBBEdYKK5/9+3dT26+b8tfOK4D23Xgug6UDLUsBkmbWyiRhMbU/SmtwBgQdz14jo0ApkGbFXk3igGONQVNyhXyQ5967FMvuzFvXCoJJjhS6bTJ0nkez2WzpzhRo4SuL/9O+RmAMTjCNkkLL/JQGCCVMlAybkQ+y0qsju2cvG3F8h9mMxk13bVT01PYv49pyYUiLSwNOBF7W3MGIQmkGRTRYc2Y0LPw7RgA4hyWbc86ayekDDVQeeEtM39QzHTd87hFMccFUzfOIjLHQ1go4mJPL1zXRewWFlE0eGIE4pHAhySzwBkMkBeYUvlUV4wREYyJIVIXLe+Q0Wc1GbmrQi6/+s033li3aNHi3U8/+xWsXbcGHR91NIxNZKi+vgGMjGwViMCV0kk/fnjewsXnPvjw8FU1L2EJZAsFJKoTV9WjACAMAxRsgbaTJ64ifVwcGkQA1dXY3ByE+XyMyhApMrFYIQgwNjE+d2PrJoQyxMDFfnScPIOadP3ppSuWvTM6MvJQLBaLqCsGKMq0+W5oNAFMxw9tYEEsmhuKiseFXG6oZeXKn27cuPFn5cya6zoQwmR3LcsaVYQXi1J/MqFNg22TAis/A/NelLtvMD7VPsgyH4IyiQxMXr6cefrZZ//XspW3DUspp2t/xxKz00W7mbmeNyGG7dACg00cJW2OYz+iUUilumOxWFFeR/nnWmMwyYF8Po95CxbMqg+psKxwIpPpPXn6tIHblJVWozoSaTXUWF+/f8nixchOXr9FSdnqamvw4dEjyOXzcN1bQz4QkeVZTswVlslcMsARVnS6lHdFA79RRjAyUoM1VAInyvQFV5xiFO2QIELMcYhzPrls2XIsWLgIg/1DCFUomBChxbllSGwRlIdxJrg4nqypeXFwZOSqTKQmQsz34MU8FLIF4xZHRea7t2yG43nT2leS1rhjw/rjQuO5Q7/Z/2/8pOVdOUZNGoqIAQTHZODR3XkOzXObT2/avPkvf73nHVHKl7Z6XkwUyNTY3DJIlswpbUcKrzpKd5veVBqZ7OTQ2lWr/qGlpeW7xWJBOo5roE2Oh3XrPlbG8uXXrF77huu/89fHPjj0zbrqapSIoBnBETyiUZj3yxaWeQaECr1GEiGQ4UUVhuNf+sIX/vu2B7e9obSCDGdYSPfdf98tvRC3ajU1Nf0/z+d+cubMmb+qranhRuyDoUgK3Hd/W1dX1//KK6/oW83aaa3h+z62bduG1k2bZjUW27apr6/vzbfffvurju+vuFJplRMBnJUcz+uIxWIV1MONjAmBFUuXo1QMZtSbmMk8z+vt7up+uefChU86npMQMJAaU9gzc1CWPb5aDdakXlWEeAZMrCMrMB+FUCm48fSrD2/d+o9KKZw4cRwrV7bA5taELWxhBOmNF80JEGAsmUiMXeg4Oz7TWMcYQxgEEJ4HyzWni9Yajc3NcB1nxkxrMp0O49WJ/doWf0ZkuFfGTSZ4jgPPsgd//IMfQsoQsVgcdXWNCMOQSKn3tz60/RvHjh7/r73nLzQ5vns7B/MlTBwoohOjDJKN2o0hDIMeRax3+/ZHdjU31P0okxm/rMuKQVHhtaGhEaYUDti2XXzqqS/+xzlN9YPv7n73swRa77quH2oCY6JyMl37DAIi5PL5ywsWLvhNIZf/66XLlu23IvHJaW1dANO17J/SfN9Xa9aufeP0mTNrJsYzn4n5fpWhUeCAH/OPOo7zXH9//y1fT2uNeDwOIQQ8z5tV527LstDU1NR1z913P9d29OiXuRBrdRSLZC5PjD/8yCP/bfHy5V1DoyO3dN2ANGzXRVNDI1zHvennAcD3/bNjl8Z29vb2NnHG1xKjWkVkGoVFu2/ZytCdK9Vgy6qsVjmGKH+WcWnb9ntz5s17M1Fd3TYxOYHcxCRGh4bxwNYH3hoeHP7fR48f/XfxqrgQQoBCiVS65pVnn3nmO5XVdY0RzO4cj8Xx+rvvYHB4CPfde5/ZnYszI2DGh0fwwNat+wb6+7/fcer0N+K+LxTMc5vT0PDiM08//b1SqQTShER1FS6PT+Ls2U6USiXdWNfcxi3x7G2rVt47mZl4ZmRkJA1hb2aMWRUYE2ORF0IDYRgc27D+ztMDw5d+mE6lzlmWVZLXUDKICOEVTdeKxQKWNC0J44mq72z9+MdfzWUn//nRI0c+RozdyxnzKiqzMGh3wTnyhcJoIpnc85knnvglaf32a7t2jeZyuUo/XQDTF9K1A/l9LQgCBEFw6hOPfuKbF3t7jx86dGiLY9vB2jWr9/T29L6slLo8G0Co1hpOtBteKb80i/GEK1tanlu5elX7rl27nh0bGW1saGzse/JfffFHt61YsT+TmSCtbo2pqokqRclbxfyJUKhisfhqy5rVPYEMnu7u7pobUdNVuSqvTUJEaS0FOEBaMaWFYoxrAgRjjJSWDAzQCgyMobG5ua9lVcuLo8Mjh8IwVGWYUhgEACH3R089+V8WH1p6/Ffvvrsjm51M3vGxOw4+/tinn2uqbRi92RzG/FhF6itRnQBn7LrxoFIKjPP8l774xf908ODB9n379n0qzOUTd95552927Hj8bxpq0pfLv+d5DrK5QsVllFJCSTUWT8Vfy05mf/XQo4+sHs9kt1zs7ZnXP9C7SCkl4vHExJJlS0/fsf7OExc6u36dHx8veZ6XL5VKiHnOdVEnZTOdA0MU8gVKJ1NdxXzuP3/2iScaiiq8v7Ozc9nFnt6lwWQ24Qimautqh+bMn3t+27btb3Z2dnfZlpW3LGvG1jT/HxTk2n+d3DpTAAAAAElFTkSuQmCC;" vertex="1" parent="mLVBz9L8hG9vox8QYbwN-17">
          <mxGeometry x="10" y="10" width="91.31" height="30" as="geometry" />
        </mxCell>
        <mxCell id="mLVBz9L8hG9vox8QYbwN-18" value="" style="sketch=0;aspect=fixed;pointerEvents=1;shadow=0;dashed=0;html=1;strokeColor=none;labelPosition=center;verticalLabelPosition=bottom;verticalAlign=top;align=center;fillColor=#00188D;shape=mxgraph.mscae.enterprise.server_generic" vertex="1" parent="mLVBz9L8hG9vox8QYbwN-17">
          <mxGeometry x="30" y="60" width="24" height="50" as="geometry" />
        </mxCell>
        <mxCell id="mLVBz9L8hG9vox8QYbwN-12" value="" style="sketch=0;aspect=fixed;pointerEvents=1;shadow=0;dashed=0;html=1;strokeColor=none;labelPosition=center;verticalLabelPosition=bottom;verticalAlign=top;align=center;fillColor=#00188D;shape=mxgraph.mscae.enterprise.database_generic" vertex="1" parent="mLVBz9L8hG9vox8QYbwN-17">
          <mxGeometry x="140" y="60" width="37" height="50" as="geometry" />
        </mxCell>
        <mxCell id="mLVBz9L8hG9vox8QYbwN-21" value="" style="endArrow=classic;html=1;rounded=0;dashed=1;endFill=1;startArrow=none;startFill=0;" edge="1" parent="mLVBz9L8hG9vox8QYbwN-17" source="mLVBz9L8hG9vox8QYbwN-18" target="mLVBz9L8hG9vox8QYbwN-12">
          <mxGeometry width="50" height="50" relative="1" as="geometry">
            <mxPoint x="-20" y="95" as="sourcePoint" />
            <mxPoint x="40" y="95" as="targetPoint" />
          </mxGeometry>
        </mxCell>
        <mxCell id="mLVBz9L8hG9vox8QYbwN-22" value="③" style="text;html=1;align=center;verticalAlign=middle;whiteSpace=wrap;rounded=0;fontSize=17;" vertex="1" parent="mLVBz9L8hG9vox8QYbwN-17">
          <mxGeometry x="75" y="50" width="60" height="30" as="geometry" />
        </mxCell>
        <mxCell id="mLVBz9L8hG9vox8QYbwN-19" value="" style="endArrow=classic;html=1;rounded=0;dashed=1;endFill=1;startArrow=classic;startFill=1;" edge="1" parent="1" source="mLVBz9L8hG9vox8QYbwN-5" target="mLVBz9L8hG9vox8QYbwN-18">
          <mxGeometry width="50" height="50" relative="1" as="geometry">
            <mxPoint x="84" y="155" as="sourcePoint" />
            <mxPoint x="140" y="155" as="targetPoint" />
          </mxGeometry>
        </mxCell>
        <mxCell id="mLVBz9L8hG9vox8QYbwN-20" value="②" style="text;html=1;align=center;verticalAlign=middle;whiteSpace=wrap;rounded=0;fontSize=17;" vertex="1" parent="1">
          <mxGeometry x="190" y="110" width="60" height="30" as="geometry" />
        </mxCell>
      </root>
    </mxGraphModel>
  </diagram>
  <diagram name="ServiceProvider機能" id="v_b8gWK1TywYVnZb3J7b">
    <mxGraphModel dx="2074" dy="1196" grid="1" gridSize="10" guides="1" tooltips="1" connect="1" arrows="1" fold="1" page="1" pageScale="1" pageWidth="3300" pageHeight="2339" math="0" shadow="0">
      <root>
        <mxCell id="fF27TKLsg0fQW4hHukaw-0" />
        <mxCell id="fF27TKLsg0fQW4hHukaw-1" parent="fF27TKLsg0fQW4hHukaw-0" />
        <mxCell id="fF27TKLsg0fQW4hHukaw-2" value="" style="sketch=0;aspect=fixed;pointerEvents=1;shadow=0;dashed=0;html=1;strokeColor=none;labelPosition=center;verticalLabelPosition=bottom;verticalAlign=top;align=center;fillColor=#00188D;shape=mxgraph.mscae.enterprise.server_generic" vertex="1" parent="fF27TKLsg0fQW4hHukaw-1">
          <mxGeometry x="460" y="40" width="24" height="50" as="geometry" />
        </mxCell>
        <mxCell id="fF27TKLsg0fQW4hHukaw-3" value="" style="sketch=0;aspect=fixed;pointerEvents=1;shadow=0;dashed=0;html=1;strokeColor=none;labelPosition=center;verticalLabelPosition=bottom;verticalAlign=top;align=center;fillColor=#00188D;shape=mxgraph.mscae.enterprise.server_generic" vertex="1" parent="fF27TKLsg0fQW4hHukaw-1">
          <mxGeometry x="460" y="100" width="24" height="50" as="geometry" />
        </mxCell>
        <mxCell id="fF27TKLsg0fQW4hHukaw-4" value="" style="sketch=0;aspect=fixed;pointerEvents=1;shadow=0;dashed=0;html=1;strokeColor=none;labelPosition=center;verticalLabelPosition=bottom;verticalAlign=top;align=center;fillColor=#00188D;shape=mxgraph.mscae.enterprise.server_generic" vertex="1" parent="fF27TKLsg0fQW4hHukaw-1">
          <mxGeometry x="460" y="160" width="24" height="50" as="geometry" />
        </mxCell>
        <mxCell id="fF27TKLsg0fQW4hHukaw-5" value="" style="sketch=0;aspect=fixed;pointerEvents=1;shadow=0;dashed=0;html=1;strokeColor=none;labelPosition=center;verticalLabelPosition=bottom;verticalAlign=top;align=center;fillColor=#00188D;shape=mxgraph.mscae.enterprise.internet_hollow" vertex="1" parent="fF27TKLsg0fQW4hHukaw-1">
          <mxGeometry x="360" y="109.5" width="50" height="31" as="geometry" />
        </mxCell>
        <mxCell id="fF27TKLsg0fQW4hHukaw-6" value="" style="endArrow=classic;html=1;rounded=0;dashed=1;endFill=1;startArrow=classic;startFill=1;" edge="1" parent="fF27TKLsg0fQW4hHukaw-1" source="fF27TKLsg0fQW4hHukaw-2" target="fF27TKLsg0fQW4hHukaw-5">
          <mxGeometry width="50" height="50" relative="1" as="geometry">
            <mxPoint x="370" y="50" as="sourcePoint" />
            <mxPoint x="1300" y="560" as="targetPoint" />
          </mxGeometry>
        </mxCell>
        <mxCell id="fF27TKLsg0fQW4hHukaw-7" value="" style="endArrow=classic;html=1;rounded=0;dashed=1;endFill=1;startArrow=classic;startFill=1;" edge="1" parent="fF27TKLsg0fQW4hHukaw-1" source="fF27TKLsg0fQW4hHukaw-3" target="fF27TKLsg0fQW4hHukaw-5">
          <mxGeometry width="50" height="50" relative="1" as="geometry">
            <mxPoint x="302" y="84" as="sourcePoint" />
            <mxPoint x="370" y="121" as="targetPoint" />
          </mxGeometry>
        </mxCell>
        <mxCell id="fF27TKLsg0fQW4hHukaw-8" value="" style="endArrow=classic;html=1;rounded=0;dashed=1;endFill=1;startArrow=classic;startFill=1;" edge="1" parent="fF27TKLsg0fQW4hHukaw-1" source="fF27TKLsg0fQW4hHukaw-4" target="fF27TKLsg0fQW4hHukaw-5">
          <mxGeometry width="50" height="50" relative="1" as="geometry">
            <mxPoint x="314" y="135" as="sourcePoint" />
            <mxPoint x="370" y="135" as="targetPoint" />
          </mxGeometry>
        </mxCell>
        <mxCell id="fF27TKLsg0fQW4hHukaw-10" value="" style="swimlane;startSize=0;" vertex="1" parent="fF27TKLsg0fQW4hHukaw-1">
          <mxGeometry x="40" y="40" width="290" height="140" as="geometry" />
        </mxCell>
        <mxCell id="fF27TKLsg0fQW4hHukaw-11" value="" style="shape=image;verticalLabelPosition=bottom;labelBackgroundColor=default;verticalAlign=top;aspect=fixed;imageAspect=0;image=data:image/png,iVBORw0KGgoAAAANSUhEUgAAANIAAABFCAYAAAA/+ri5AAAgAElEQVR4nOy9Z5glV3Uu/O5QVadOPp1nOkx3T9RkSaMZRUYBIQklhIUBIcA2IlzuZ8AGrgPYBn82cMH+bIzJAgsQOSjnHEZ58vTk6Zy7T5/TJ1fYe30/qro1I2aUkH197VnP00+H01W196699trrXe9am91HhJeTOgBf3jeAs7SH957ShSkuoAHs3nMAn5oo4dPrl+Pq+jg0gBPdKQpgW6V6/hd7J7/4bO/gKl/5AAMWJFL+H61c+rU/qLc+Ny0NYse5AQchzzlqDPjqs3vxyeYklnW2oQbAqlXxtad34Da7Dt9bvxhNbg3Vl+nLxmT8Zft6Uk7K6xX5Rt3IIaBKADvqbwQgxoHnJ3KnfuuBh2/aLuxFyo6BCQ4QYSY3g9sfePCT2c6WmdGVG//NqZQLnLFj7lvxFN7flkCHKd6opp6Uk/KGyxumSECgOEerAQMQq9XE5/cduHFbJLEIRiT4nBTAOBxpYHc0GRsusX9+SzGfajXl33paHXNDz5KwGIPCSTkp/3nlDVMkzQCfAXN2QwCs6vu4f8/+q4YnpjoRSYARQCAwFlgkxjhgSORyOeQO7dv4lxtX8rGKo+fuSUrBamqCa3C4b0Abn56YPOZ3GYkg39uL3N4eSNsOnkkExthvffd9H7FYDGvWrMEzTz2FH//ox7jy6mvQ13cEUgrM5vO46IIL0da5CLVKBRwMSivky6VjFhcpJRzHwe23347Fixdj9erVsAwT9959NzZfcAGWLF0K0hqvV4gIUkrYtg16hW37K0kmk8F3v/1tJDNpLOrqwuzsLJYuWYL7774Hph3BO699B5R67UucEALFUgkDw0OQ8tgpyAiwIhZ+85vfoKW+Eb29vbj8mqvR3zuAmZkZMMYAEDR5WLd+HXp27sHu3T345Kc/Bcdz0bNrN9INdZCGMf/ulK/glmrhtYBlmhgYGsLw6CgitsQFF56PLY8+hSvffjWGh4exa9cuMEJwrfIRiURxwQUX4amntqBcLoMLgTM2bcTqU1agWg2ciTdMkQQAE4BGYIlaAfzswBHsL1beNVnz6mBzIGwcoAHGAssEBkRMzEastsliuXHK9SeCEWXQ1SpSdXWwDBPsRA8+KSflP4G8akUiIkS4QBKAAua1Gwi2dAJAHJgHHXIAmQCT1Uo9fD9QHFDwIQ9XevDgb4wDVYfc7IzyvWCFI6XA06nAnzpKGGOIA7AA8Ij1O6+6J+WkvBHyqhTJJ0JrzEZ1etLePVP4FBdiRz3DHfwlygQEVulo65FKZ/YhX7sIRIHyhHrBwABigYIpD9KO5c9q75ju9zSIAbbrI7uwCXnBMLfR4YyhSXD09vWdO+3qyxZZ8ictttWjTurSSfk/LNJ4mQ8JQAxARyrx1u/0DV59Y2G2uy9XerOUYrI1k35Wm9EDsVjseyawP7Q385rpArhq1XKayOX/4baJqbfuLpe7WTQW+EhEoYUCyPeRrMzinETrY5n6DBwAgoAyC+5nAeAATCAOKT/02SNDG4cnsmcXPd3eHLMuV5bV09zauMOOyH/VNV0F57/Vj5NyUv69RY7kCif+0DAwPDG28siBge8/XKw1g5tALAWQbjpQdK6MMOfK3c8+s+msjesvHnE8h4PBVwrNiRiaTAM1AEsNPnDJssUP794/1E1KA4YJYqFvRBxQLt7c3XHgmqUd33kBgK+BFAd2lSrozxcQEwKMcxTGJ947ODT+jwccH5BRwGTo13odamrdgv37rutnxYGr1qz6RbZWO2F/Rl8uyHRSTsrvIHKqUDzuBxpAWyKe+OVo/v+9d2K2GekkuBABosQYSAI1z8O/DZfOm4j2f/NPG5N/VNIaUhPKhRLKTfWIxGzMOi50XcPnP7PGevD5F7Z+rGe8eLYWApoICzhDQ/PCL6p05keJeHR0CECEA/vzBewZHofyNRhnSNuR827qm/jzQUcBEfNF9E8wkADGKi4+3z/1zz/FoDlZqdwsTgBN/GNn5t9vJE/Kf2uRZyxoOu4HMQD9oyMrerK58/1UHZgIfRzGobUGZwzaMlDkJrZO5TcvaEkjSwQIBtfxoHwVQOGMoeQ4w+fZxs8vuejsI1s1XZJnrI5rqLUcL3RGY7cMS+lNIAAsLACLozYWdLXBFAI2gFue33b5gEaHjkTBmQ8NAicebhMBSqVwsOovaMvNrP94Z9PNE473ih0nInApIUzzJGBxUn5nkWnz+F5SC4AHs/kLBianM1jQBlIeGAd0aJE0aTDiICj43LAfLZbPLCj9DACACLW+IWxavAirDQkGDznPx7L2thfawLZGACkBWgj4LQjQvsPAHIaHBtMAmQYIQApAf252ta5pIC6hSQOMQ2sKEHQiMA2Q52NpzLSvqI9joHr8qFNZv6gwwrJQzc2g0NcLaVlv3IielP+WIk8UTtMAHKVsTcQAgHEGEIEzDk0EzoPvYAwE4p6Qhg8FEMHxFTpaGhGJRZDPV2ESgRMhV3Ugh8fojMWLPAMAn5lBvqEBFQA+gIQmREFwOccceOED8DS1hFoDxjlIB8+fC7iFASp4RLwSUpWOJ4yxAH23LEQ5R6X3CKq5GVjxBHDSKp2U30Gkq44fRZ8BsCKTfrgjnfzjQaXq55BqrQEGAU1+MDE1wWa8eIbBt+UEoElDtNTDqs+AAzhYqOHcySySloFP7ziEG0yGZTWn2eDkl4myv/IBgwDXAFIDI1iuXHQu6UYcgSIlACxOxbcwt3o6ASAdKM/RFin4QSNGutRMPirkH7dPk9xARAqUDuzH9h07cfqa1eCmdVKJTsrvLHLbyORxPyAAzan6PStbF24b6hu9GEkbAAMPaTOccWjlwfR9tNqpfRXXLVMqifiCpvmgLCGYo5ICyLumqfOI45/1/MNPXJSMRKY3LV/8Uy5xkCEgbftKQyiFPIA8gDnvrbu7++F0bv/78k4tzSJmYBFZaJEEB5VLSEWs0qJMpq/oE/wTgA2cCI2Og0KxgKnhYYgNp7+xo3lS/tuKjEQDIqkgwksDm55l5C5NmF8qxI2znvKcOKQJYgGbjnwNAcLvJ8XOD61o/+hkpQZbhJ8ddQ+lNKAJAsxkynv4C9liF5gJ5F007zj8ZzfEE/+z4NE3KGYhznlA2jtKNADLjtx2Vdq46eG8+sSQ5wHcgmYC0AoAoZ58/FVL02cvW9jyjW2lMjgMaK1BjCMhGKpKwSegwy1ASAkICcM6yYo4KW+cyM5MEh4BWnI0A5hCMHnnyKer1618+EhD86dyBw5fh2KhJVtzloGoVp9MHBrh5uELLzz7K90mhj2nBu04KCNgN/jhdzcVx+DsLEpMr5oplGxoAjMEyJCoOi5+dt/Tby1UKt9oXbIE7+9ohGWZyIRtiCBgSSxqqsc1F77pn3pf2GdnZmY25Arlzqqn61MRc0hxPtK8Zu3zp6/q/H5ufCbw3ZSGaRswlY/9NYXWqIUYZ5A1DWInWXsn5Y0XGZmehWICT4LDcks4O5OAGYuhgoCd4AAYKVe+/bHmum+f09m47IWZ/GeY4NtjwI8/MlGZmqlUkTdtWFIiWq3i6SN9H3BLpUwmmSzPGMa3ly9o1tqpYHg621qSkTh8FwQNMKBgmihwLIMdxeqFDUhLgepkdu3j5fLlhtbqzNbW2514fH/B9+HYkUGh6SP/2NFoe1R/yVip8o4lieh37p2YeewnNReuCwhNEKaAZXJEMzE05LP47EwJH21OY5EhQPmp/8PDfVL+q4rUgiNqGDg0XcQtzzyHpzatRmJJN4oAcnjROk1Ua2hZtebgm7vxfgXgge27kKvW0GUbYACKvm75zu7DH71535G/quRm0NzYgLIhu/7u4nO+uqGubmRnqbLXnj6U59qIs1gMynWwwHdx2uLu2xvr6nDakgX2kcGpa3/Yc+RjT2XzGyxf4dylS951xYZ1NyywjG0WFyhpYAaset4pK25dA9yqlY+pgSchYoAiQJgGUqkopBQh2gckBQfXBIUAXj8pJ+XfQyQAaCJEBEdzPAplSNQQBGQrhRISyTjABWq+guu5mDVMeCDYUuAjy7vQKgUcAp4bnbj2K7sP/RU6uoD2TsxqBTM79mlVdadiLfZXIq0Le693yt+8f6L890cchng0jvfXRX71kZVdn9le83Bb3+iyPUOT33tWRA0sWwgHHHcXSqe2DAz++YXp2HtnhjxntVOByTIoAvAAmI6DCoAiGOqhkbYllBRvSO7SSTkpr0WOy/6ei+FEy1X8+MgweHMT1jek4LoeYJjQWiNKGm9fsgiHqj7itoEpT3fYhkCVFOD5gDCgqzUMlmqLDyigkojh7HXr/2n/gZGdoyPTXQ3pVOGUdZ13tgg4CVbBY0/taRICBiIm4Huhk2RhcHxsyeOjTmOF8eF6QyDWnJpvZ1lrnAGNWaGxq1TE2yICo/8x43ZSTsoxclxFsgFWBZC0LXpoeAJdCxqR6GpHTQeFTDzGIToXIccJcVsixQFYwquCAUIAmgDO4QsTliWzjSxgdOcYqlXHuUtrDc/z4Fd97LYYfjJRRndXlx7I5YDJCcAI7+MpxJqbvOaY6ZQ0gfse+hlH+1zmY8TGmmVdGJ8uYHfVwe/FYvOLwEk5Kf+RcozbQETocVy2tX+QCwCMc6RMA0z5yAuJ3YbENgAuY1iSTGKFFGgSDB4Dzmpu+NYNzanvyoFeLJgeh9l7GNdlkj+/YGHTvzIOpMM09KMnuckZxjyFx/NVmPH4C8uZ+p/rsiOVaHYS9ZNDWDUzMtsdjfy1Xd+YXdTUCHvZSgy1LITNGDwA01LCq8ug7CvYjIEzzm0Eym4D4Jyxkwj3SfmPkHmLRABiEQvtlfKZT4+N/cng0EBkY0PTF9Kx6DMEBhNAFkF27BIEZbr6HA//fHgIf92chO06Q3942oq/5WtlIjc1297SXHfkUqfyd7bvj5UBPPsP/xidnpy8OHrwYPwCy3K7u7rGiqv+7sk1cRN/v7oVZ1qisL878+3eZQvlHbnadSmtZi+tT/ykNRW/zygV8dndh9G1PoP6mI3bHIXllkAVgO350IwhaUeQn8nF7hjY/VWn5qwVlvXoVR0LPm9bRvGkLp2Uf2+RAMAZeFKwPz3i+DdcP5jP5Gq1Js6B5MzoRp/LwnuXipsBfEkCLg8v0gDKinA4V0RnXQQ3T87gR9wa/sO1iz64RRl2e0dTRYyOlSuuhxvf/951yWTq96rl6vWmYXQC8Kanp2ZSX/vyl8ubz/u3M5ub8246RYvrm9RsS/O/Zozqz9JEXnNDNNdeKcEkH2MVB22eD9IaI0ToRGDhGIA2yzjt52PZ733zYG9iWuvFpBUYd077arZyTUNbR39CiA8C6J3rNBFBGgbSmbQRi8VShmnO4ROcSIMxDiLNOONak+aMce17nkgkErW6+vpKLB6Dfh1FP44WrTUikUgknkhkIqZV45zn/jMGiLXWiEajSCSTGd/3WTqdnmH8ZCzupSKlEGwoO7P5kS3PfdxJ17eN+gCsoKJOWVMzc2vNj23Z+imxuPPeWCL+XNXzsKFrIbhpQAoOS4pUgZCaZtx9amiy8MG2BaW/WNRQ6gFQ9jXYzq1LDCbfNzQw9E7DslplwH4wZ/OFlsefePILruvY77722i+wsQkITSg0NOmWeGRyvcnwt9v2m9cKVXf5grqoEHxGCl4mME8ymg8Yc8O0xicmPrStMLwe3AQMM/hAg5Vcv3uqt6/7vumRG5a/6cy/vUiImmmaqK+vl6PDw9d9/7s3nlepVDcIwRUQcGIDJyv4QYfJ8CEZjzMuvCcee+zI9OTkM6lMxrMs64iU8iEi/aq1iohgGEYylUpdvWPb9uVjw8MXAOxQsVh8OplM3s4YG/td1IlCQrH5O6aHaK0Rj8dRV1d32pYnnrx8x46dF2it089vefpOyzSftCL2/b9DM//LiUSl2PTRQ+N3TkZTUWgCmytMwgBwAhkGtjp+or1U+ZuzopH3UbDDgwIgPXdZX7X2zIqth0xXK0pLo+hVq5+x6+L/tkgr6IXNOPzE411TE5PvjMTjrcQZOOeA1iApEI3akSOHDv3xjt27H1u3bt1TfGKSFjKBcn09mO+t0LXaTz41PLHsM0Mz4J5HZ7m1m6K29ScWI18pjQRjeK5Q+pNvjhVuQKY+mPrQCHisHCQ4KiB8N1f8X39ScUbGRye+Xq6Uo48++vCXJicm/qhQKMS4aUKwoAyLr3WQLi8EoDVUSIiVnEMpBZ8IpNTGiGm8IxKN01NPP7WtWJh909q1a3pLxeLNwPGRd8N4MVUlHo+LF7a+8NaBocEvMV83FPOzpiZ9diQSeee99957yvve977PmqZZer1KIIRAsVjEwYMHj3nua5VIJIL777//zK3btv1gYny8S42OGoxzcE3r6+rqfr12w2kSwN2v+wH/xUS6mhLZSiVKQoaFfsJ6c5grm8qAiIWtPfvO+cDiC9tWtDRnywAmfd+668nn3jdTVRmPCUAa8GZm4o/s7vlExFj30Gy1NggARqFwVtl1WqM8CQ5A66BcMVOAySU0E/X7Dh5aduqaNVvydhRxBby1MItv7ul7x66+4VO9WBye0ogQ8OQzz77jW5tO/RyTRvaJaYWkYSZ7p/Kne1II8KBWHlhoVihcFDTB41Js39u3ebPvfD07nT1lx/ZdZ9u2FYsnk2AhwqgZYGgNDjZP95sroawZYIBhDrnQjKTyPMxMTGwCx+n79u/f5jnOassyb2KM7QKCDF7TNMGLGo888OD8pDYsa/nI4OBfipq/0IzawbOUBgMivb29H3r88ce3mab5w9erSFprCCEQj8eD3LHXKclkMnXgwIELBwYGutOZjEQ4NgpgM4XZK/oPH5kWQtz9ep7BGPsvV15NTsFo9ueSTUmDgb9okebo24Ihp1iqpqmdAzsFgKrSrXfN5K737LpA4XwFbdp4VsTX1qarm6ue9yMAeBtj/cRYVXBuM6I5mwFTGPB9HwAczgWRECDTAuccMcbRw8XGohkDOAdjhBo30SvsBuKi0yed3V4qIiZl45DnrodpBPkdocyV+iKtwTiHywUOE1aMj48hl89vMAy5Zu5NSi7gkQaBIDgHp6B9GgSTi4D8CoCBIIWAp/yg/JgQsINrZblUOt00jNN//otfrHvb7739z1pbFrzg+R445/BcDz09PYiFhV8I1GJyuSRmR+GShgLBDFP4pZT27t27T2OM/fD1vtBarYaVK1fiwovfjFLx+GUEXkkSyQSeffrZJf39/X8Ui8c5EUHyuTIDgJQyUiqVrrn//vt/CeDh13JvrRTsWAwL29t/qzjk/80ibUYV4XtMC4G5HNWjLRIDA4HB0L62OStHEOxfLMZy7YIf2eO7i5hhAkKAXAdNbrm0Imb2F6vBxCalpi0hfE/5YJyDgUMQ4EEHkxX60c6OtsOuacFJ1yHuuYhbFtK+l0OlBGYlATAw8mEXy76ldUFxhrhSiHHh2sovMz1HRn2xzfMWiQgChKRWs4cO7jdqtdoyQ3BzbkV0SIMzQIBBaQ0VrpYCDF44ceb8MUcpcMYgEORdhSVcYEopiAjFcvnCX/zs51959zvf+efpTOZZ0zAhDQPRRBxKB0mJAMHV2p9blSUBPikg/L2Qz7/uwhJOrYb2RYtwyWWXolQsvm6LZBomsjPZFblcrr2hvp5zAD7pcGwByTny+XzTnj17znnbO6592HmZgjNHy9zarLVGzanhpXXe/28W2QyMS8nhUFBnLugsIXSRgq2Hr7G8bcFAjdihPcUKFsZsJA2R+9Cpa76w/dDQheM1H/AZ4qbAO1pS3/nDRY1PlF0XNS5x+62FgeUrVvyof2DgWiFlk2VZIKWgfB+e76u2toU9EcvaImJxGJyjHLHQZ5nY3JS6bddM/r17ai4ABltoXLWo8fFcLNrPOMdmaSEjxeSTnrPrnkplHeIZIExSJEZhPxjAOSqOjzOaM9vCAmAAAMFFWG439NsAMK0DZz30keZePA99JIYgu5GzoFoSGIMQgQUnHVgsrfX5t9x668eWL1328SuvvHJ6zcpVeO973oOvfeMbSCaTYX1MFhj68Fqmg3oYQghopfjrhgg4R7Vaxc6dO1GtVo8p4vlqhTEGxlnj4UOHPxK1o6bgQY2OucLuc7+TJqpWq0tI6ybHdSdfzWZtzupblgXX/a9F5JI8Fp39wNJFN974+NM3eAvbwDSC1ZEIxDjguUjk81i7Yc3Xd5e9ienJUXzglEVoMA0sXdb9ZLLgfs4Yn2zusC1jixcdPW/d+m8UNOFZYaCtVsZbPvHxnl/9zedu6ujocLO53Dtcx2lljFEsZueam5p+ePnlV3y9ZfP5JDVBcobdAF4oOrhs+ZJbWlz2PyKjE2esS8etR3OF2Q3nbLixD/AYgJUAbMA5k9GN63buO3NnPruUpZJBBi04wIIjYXSphHNtfmBpd8dP86Q4tBaMNFylIDmHoQlKaejQKkEplKpVaCJIBMX1yiyYACYT4IaEKzgkgm2gUgqKMUgE1/tEKFUqXdVq7YOmaX7RjtiwLRssBFoIRFyDJAGuUtCCwQiv9XwFJvjrdmyU1ojGYli/fj3KlcrrukcqmcTjTz7RfXD//uV18QQ8paGEgKHUfH8ZYzCE5KVi6ZrHH3/8lkQsduursX6aNOyIjWUrVrwuJf/PLFKZovKxhY0fLqxc0n3zTPFCchlgmcFqXnUBwfCRdUvvOH1B/f9XtWxqr0vAlAIKgKOUM1Wtfr6dCN9vrcP/ky2ghzRuH57FwboE3jQ6gmV2DBf/7y893/u97+/tHRratXP79g4wRpvOOP35K9/61odoyXIXnh/EdiyJ2YqP/ZMlxJTWp9SnvvWeOvtbm2I2zn7hAKbLVbTHbDAE6R0VAIst+fin1p3yqc+MF24bzGYBGQFMCfg+SLtYsaAZ71D5G6TrPMOFYQruEVFgVQJkkgGawEJLFY1Fc+1dnYeEYZQFYGmltOaMlK+inuM0FYqF1tlCiYNzWIYMDtYgAg99CMYYtFJnDQ4NVEbHRn81MTlxaHBwEJ7nzRXlJ845zRXKZDq4Vms9B/a87hnGADhODYP9A6i9yu3W0UJEKGcyRjE/u5kxZlII4DDSwSJwlLIIU2Iml4tNj4+tuvzd77p1cnISrxRfYmDgUkL9DiDIf1aRyvNQtWN6ycZNH130xJZLr6gzlm0ZGvuoCWBj+4J/ORxJ9LauXvqbVbakGQQJe0b45foKGcvEteuWI+fX8OHmJN9piPOPuJReHTeq6XjsEU68JgCkuheXV0ai/7bqlFUwIhGsvOQtICHm6yVoIkTB0BA1OhdkkmeNV53KexY2bK0HhvunZ1DwfAjDQBUhthF2YLZaQ6yp+R5m1L27fnKi45I0++v9YyOxjqbGQ7eW1DejC1sH3YnakyZp+D6Yr7kAlxAs2KsrpiC5hABHsVTAmjUr73zne65/XzyeRKVahJQGiBhm83l24NC+U7c9v+2carXvLVbEumgmn7cTtg1GgK8VNGOQjEEKgUqtetFvbrnl/Z1dXZ/1fR+nrFiJ0dERGKYJX6kgBZ9zCCJ4ygc4h8DvgGYxBsE5Crk89u/ugeu99q2TEALVSrV1eHDgo3bETjmkYXIOSQSPgupRIjxJxFEKhiG1Vy6eMz45dWp9Y/N2zztxGbSg3gehUn1tlpIxhlg8jkgkkjAMM8p4UNVQa7BYLFY1TbPwu6CTR0sqlUIul4NhGE0MDIwxcJ9x0zS9ZCqVtSIRFIvFYOv/EpHB0RUKU+XKgWbODnxuWRt6ulsfjABYlYje8ld9UxieLaJsB+kLGQQpDL0AZqXAn67sxllxGxOFWfQ9v/39jw5MfJmX3VjvEcP5/bj4XyvXrPruSwuccgB1hgQXfJ58l2TAjqHBpl9v6/lpr53eYHtV545k7NGO1uZ3REhXT09H4A8P47TODhDniCCsMGRZGJqe9t7c2Piz6998Nroj4rnB3OzihlRy17tc/fzPakDR8xAHEDDvdBBvYgIggGsWlBljDKSBRDRemBwd516T0r7nhFaEoVgsUq1a21atVrelM+mvrVix4osvvPDCx6vVqm2aBpgCpCZwwaFB8F0fxWKx/rzNm61YNOrs3r0b37nxu8hkMpwBnNNRVY3mKyQJEOnXRbolrWEYBpYuW4alK5a9ZkUiTcjUZXDo4KH2p597RqbTGVBYnUkDQZgAAWCiiSDAIExT9g+PXLarZ//P/vTPrtw+my+d8P6MMXiug109u151sRnbtuuUUst3bdt+ytR09spKuZxmQXwDCj7bvXP33tGR0Vts287W1dVtz+ZmoPVrGz1NGolEAoZpLnvisScWzORnrp2anDwFmhhnHD4pYcrZ2pbHH398oL/vkfb2jrFqrdb/0vDEPP7IAZQ9DwVpYHFL4y0SQKVWRa7mYEE4mE0I8pQ8BEl/JATWx22UAEw43jVf75/6h35p1ZkGh5tX9tCg88XGrsXTG5KpW7IAYnXJ+Nat21pN01AMauru08+dBRiEVqjnWLmtb/KmO0amz2BpDaaV3DpduvwK0Bc6U/ZfL4pbRVWYRTsRCAFymCtXMLX3AAqJOpxZH8P5iGEIeLQ7lXnUBfA2AE9MluCExSg4iHEQQBquAgzOYRCHpzR8riC4gAGDTw+Pi2q5olvaFwCcg8LrGQ/OSZqYmMCmTZv+oqOjI7Vz967/AUPAZgEaWVMKxBkMIUiArx0ZHl5lmua28YkJGIYBYkQCnAwWoICaASbjYERwlQq2mq9DPN/HgpYWXHXllZjJ5ZDgidd0vZQS5XI50zvQ9wEejdiMMxgK8JQG8aB8lGAcPgKQxQzKsMFjkrKzhTft3tnzi9HRkdoccHM8YYxBGC+fXjnHqDAt67S+vr5rHMe54cF777NgyowhJEzG4WkNxRmO7D+y2eT82lR9vXf7HXf886o1q2+OxezxVxuDIyIkYvHmF55//k2Tk5N/+eTjTy6GxRN2JAKTAnG+TE4AACAASURBVBR37syvvTt2XMItaxKMP0GErzU3Nz9mGAYqlQpY6CMf01GlNUoItm5RpeBpgjAkUMgjIk3waBSkNSb37kekeymqUiJhMIwUnTP6NerQ0BBMCMkxOjxWfzBfvbhrfNethb6+M3cf2P8XhdnZJVIKVZ4t39n+/La73e7uJ0ZSdbht6aq2nIcz0LwAZBggCFQVYdZxLnby7j9kNRU5gCoROAJmRaVahe0qdLW2YdgB8lagYEFJlKD+hKv1i3OTM4AzRUdB2ioMOgsQPAAuI3DbxMTEBDxodHZ3gnTgYFfLVSRTSZzb2Q3TMnHKypVfLJaKlwwODHTrSPTFQC4AzRhzfPes3bt2rpRSbpvOzsA0A/oSITiUDRS0Q7MXTzt83Vs7rWFIibb2djQ0Nr7myxOJBJ577rm6ndt3XpjOZOoYY/ADnB+MCJF4HKVyGVwThJQhjE1I2FE22N93/d333HlzV1f3o45zfN+MKFDWBQtbXqYLGo0NDdi+bfulo8PD/zo7k8vYsVhdPJ0KK1cFqKkZxva4ZTEO1lSqlHD7rbd+pffw4eUbNpz+NcM0d71Sf4kIVsTqzOdmP/jcs8/+gSGthXUNddAI0FrOGLjWEAiQSisSAWlq6tm18yo7Fj3z3rvu/Pp73vOeL2YyGTiOc+JjXRiAvOPhD1d14jtTBUQL0/j9VUvhIZwIuTy6PAfDmqC4Adv3nSQpFFRYjEsTTHKR4Dxb2Lf3jJt/+eufktaL0skYSCkM9g0tbmtpXrR2zZpJozh7YKBcrvBapTag/QhgABTse2M1Zzzu+C4Hw9vO3ISoEJjfZTMGadtoFhwlrwbfirzsRNREpBFAeoYQ8JWCxwBTCHAAJdLwmYbiAI+YmJ6aBmMcnd2d4ELAMCQuueRS1Nc3olwuobGpaWh6auqR3gMHu30rAmKAGYIOLjQUqKp812CkQdoHMQZGjGnSTAEwhAAjgqeDo2zmArOvZ2snhUC1UsGWJ7fg5XyV4wmBkEwkMDQ8fLkhZb3BBTyloASDKTj8Wg3LTzsd2VweYwN90ErNn5FlmQayuSxqvrv49I2nP5qbmTnhc5SvTtg2IkI6nca2bdvecsstt3zN4HxxLB6HFwI4hgjCFT4oQFsRHDfkQMM0DLQtXIiB/v73e55nX3rl5X/tel6v74cAj6JjUMJAiSJdhWLxQ9mJ8XdGI9GFEBwKgU+otIandaBALIgn+kQwOEc6mTA85bc+9MADX3Adx9q4adPnOeck526vKeCazdFgCEAxnUKacziDM8i7CoaUQQ0HziGERIIBrbZEijOUU/GnUqnUcNn32pTyIThDU3394NrW+mfu+efH/owpb1FDXT2IEUgKCGna0zO5S4d2bBttPvOsT1122vKDz/aOPrzn+Z1vdrk0QQyWJmf9upX3n9uQyuZ9hcV1aQCBknNgvtqr1AqSgroML3U7FQWwsA46yaCJMQpeAgBIHUwknwWUIKFf/OJSIj+dxeGag1wuh3POPhfSMOG5Lsx0BplkCoyxshdaSaEDVgQhiMEJYgCTRDwIdvOg8cQ0SFAQ71IU/C8Dg3qN+/t5YQyKCOVqBUowvFbfW0oTwxNjdU8/9dR18Xg8qihYlQ0VdKRSq41uOH3933EuxI9+8MPryuXymZJxxsKzfS3TEuXp/HXPPfbkQ7lcrv940DZjDPH6zAlhb9M00bOn58zHH3rkm1JTdyRqQ5MGp+BdqzCZ01SBGfcDzAFGOI4eAfFY3Jgan7jmsQcfql3z9rd/NBKJuIwxFItlDPT2Q0oZFDRNpeLF2fxV40OD15mRSAckB/ODncvcvBAhQ86dmychy8cPsEc01NVjy5anrk4kk4/W1dU9LhUPzGVUMNTZEZAQKCHYFnHOURe8J8QMAeXU4jWu2mtalyOMjTqa/AfHcri+rR7akA+d1ZS5qNUtfbPnUP/qlV1deyuZlo/sv+l75ECfmkokIEBwNYFYQBFyfJXJTozXvXfpkshgqTTZ3t36e+dnJ99z8+Ej/7vB10NvO3Xt37S1NN5d4UzPJkwMuR4Wci5d31uiAeHXahNRwaeDElwvErA5Xjw5MCUYErYNmzGUhCTJuU8gaK0hOYckwAuVUHAOEforHCHxlRP27NiJ2dkC8sUSzjvvHBQKBfi+D8914ThOAziDwQLr4ofolikkGBE0EWOa5hWcQqqRUARXB/ErMwwA+/T6yoVp30csHsdV11yN5oUtoNeokBE7AnVELclms7YdjUIBMLgA14CvfJiWNZzJpL8biVg+MazSoLOkEPC1gq8ZorYtR/sHLrQta+2KNWv6a8eJYRERstnscRnpRIR0JrNwb0/PW72asygZi6OmFYgxmOFiqUILYXIOVysozmBwDqkBRwe+puQCtmVFR4aGl8SjsbpkMjkOIkgmkEslIKVANBrD3p69Z+zasfPTtmG0as5CylqAIPs60CBTCHhaQfFgLCQC5FKx4H8ZAfF4fPFsoXCZUuopmUvEAQAX2wYuPv9M9IWdm/MhLAC2IRtmanzdD57eekFfsfYJcPbE4nj0UVGp3au50esCxZV1Kb3kgjP7CLgel0BLgEeB7I0/+vZSi0vfD6k40BohGgLNCdwwzjA50Do2wloga21rTvnFinM3PlkH5KpT2clCtYqZ+jQUYHzihX0dlwl9+cj4xFdrjJUk6R9f2N72mHDcZ2JRq48f1W6BANX746YE0HQOAOBnWjGftABj4OEJgh4wTwPSIHggKM5C3wkYGhiCU6uBC4FHHnkEfX29uPDCC7F69Wr09PSsP3To0LnxSAQe9PwpABwBkCAs08/U1WWlDDl6ROBMaKX1fN6FOIoiBE0Q/LUTGzjnEIxhYngUg0f6XvmCl4hpyEguP3sdN4ylYAyCAlagZgHt6LTTT9sxOjTM9+4/hHgsOePUPO1qnzPOIHQQuM87lQKzzOVNLQuSs7P5wjHLAQXZ1isXNkEI8VvKlEwmseWJJ1ZOjo39kYiY5DA9P44eAt4np4CnV6EA9JGaoJmGy1joa7J5GpNhGjXGiFPoHnDBYEVMSCERj0etUrm4Kleara+rqwO0htQMfugbzZ0P6amQY6kBzTQ8FoT4JHGocPPNGEvUKpU4tIasvMwRKIwxzDhO0iqVfvkvfWPnQ0iARQHCpZj1L8VzO77050sW3+g2xj424amqYRpeQooxhRcd/uaORf7g0JAPBM6kYRigudWXCFKIOh1YaSIAmlAk4IACQIZEpx3BWM3BRKl8faFc+cbni6UIeATQLA5GH77p8OiHGycLsz/YuPJ9ppW+nb9MahDjjBgLON1SSigVxn7mivZTyNVjDMQY+o/0oVquwBACMhyP8fEJEAGpVBr9/YMXjQyPdNSlU0GKBRGMgCYUbEukdNra24ZM04Tn+3BdF6Zp8mBeBJYJ4WpLRMHWWanXXDVMh1vyeDyOeDz+mq6VUmJ2dja1Z9eus6Vh2EDgbymtoQlwXHfojA0bvrd23VqXCROLFy+59/bbb/t4rebFBDGI0HexY9HYwYOHPrB6zZoHNpxx6o5i8VgonAGQc7liL5H6+nq4rttULJUaU5mM1EeP44vXV2Px+B2Lurr2l2YL9RMjIwsd5Z+qgE5TyGAcw7FMJBIlxtksENCuSqUSdmzfiUjEQiQSaZ7JZt8Vi0YNrfX8O0CIBgvOXMb4400tzb2pVDo7mZ1OT05MXMg4Wy65BCcOBQWlFThnz6865ZT70pmML/f3jx//5QBoTsblXYd7P37vwYHzWV0qYGKDBadQCAF4Lm7fvvsPuFY7upn/9WQsimRHK/hRrF4XxDWIcw1IsPktmKCADOtq5mluEJR/zLN9AI3pFCwA44f7m37wzI4/HhZmhMWiIB0AcASAYjamxsdS33mq+qXda9bsG5otHRIn2B01K82giTMCvPCMJ6kJmoItFiPAANOC4A33D6BUKMEwjbA0crDyNzU1Ye++fdFf/vwXV0suPh+NRuGTBicGDg5fBasilI+oadx92umn74rHYmCM4c477wwhPYIRwqtB3cAwH0ppMP7aKUI6zJ1KpFKv/M9HCQMghBDlSmWzVlqaQoIoRDoJgFKIJ1IzwrDGAIY1a1fD9f3n7rr7jvu4prdz9uI4RoQhprKTi7K5qRVWxNpRPIp5Hhx6oHBg3/7gOKCXQELJZNKcnJz6PW5IQ4S+paeCl8yVhlbKX7529dcuu+TSz919992u1kp0dHe1CtP4wL7dez7gKrdFB4syIqb52JvOv+C7Y5PTZSFmkJ3O4vbbbg+2u4HJ6RZg62JmRDAieHP0sMAHItM2H1qzZs2N4+OTd3mep87YeAaPJZKX/fimH/4Bj/J1rq51aV8hYlhbo/H4c3Y0+rRt21p21x0/3iABcNftfM5RH5pIZcDDFIOQ5gmQD5IR7I1HpTue/ZN7l9d9faJSQGXER7JtEUjIOcInkSbigs8dARO8QM7hE4EBTBMFfB1fQ2mNCIB02AYTQHV29ouHY6lTSUgw6HAXFKZ6+D5Q14BbPXnKjsNjH1mdtD9ZOUEaeJthkO95/tzWgjEWBFB14FGJYHWKHDnS21Apl13DNBjnHBwETsQYY1GlVEOpVPz7mdzMufFoLHBgQWHCYgjUEMEyzXJzU1Ov9n1VrVSCiHhwFA0TjLOAThM8d45eBACk9WuySHObpOaWFqxYuxqvBWkQhsRsfta6+667rjEMYx3nHL4O3rAQAtVqVZ264YznprK5qXvuexBr169FJBLx0pnMiFupzVOi5g5XiNp25PChQx9+4L4HHlRaT89trebGOpVIH5eR7rouiMhmYIxzHiBELLDwHEAylcxec801X+WcV1PpNJxqVZXK5b63XnD5FxJ2dHz7zp1nxlNJz6lUa+ede+499Q0ND4bWH5oI1UoVkYgVbHkIUCASXMzHB49+B02NTbsMKW8RIY0rYtswDOO2dLruUKY+8eHJyfGGdGPaa2po7M3m8t/0lZrSWkOe1pg+7iA3Afjlrp6zjgwONaKhGSAFFSIlc8rAiIIYi+LyYA3LZ2EcULkSqNaP7s4OLLFMcKWZYIz54WSdmyWuVtA8sG+CEfmuC2bHIewIEgh8lhoCH23/wOBmqgkglggSvzGXvDd3bhNAlRKuak/pr65ZiP6Kc9w+/eR+j3laSfAgFYKI4FAIOoAAy8L2nbsvamqov9kwpeMrGIxxZZBmrvINKY01Y2Oj1uTYSDQajUR8qPkUDD90jjkCFoAQxsMrV66+a9/O3RgcHsZd99+LTCYDAKSUJhX+rwSDpwMfiQPg7LVZJB0SVS+/5irkcrlj+HAvJwTAMCTKxVJ3bmZmuRCCO1pBhMFFpRUK1cpk5+JFvzzjzFNrpUIJgwMj8FxPb9yw6YFbh3/zfsZZMnALg3GMRqLo23Vg5dpT1nSefe6504XCi+cTcxYEs/v7+3+rLT5pTaSlwTk8HQS0OQVE4Zr2kTAMZRjGbKVSwZs2b8bWZ1/Arl07EI1GK4VC4V83n3/+d971nncbX/nil8qO48yn2yulMDOdDVzXucwAkOBCcJc0NA/mmQSDp3xwKcgwjMr05BRFY1EIw8T05BRa29vR0tKyt6/v4McvePNF4gMf/CD76Q9/6A898eR8H+SJzif2AAxVa6eUXM8CCxzxwHwAjMLQYaBNKDOe3KPk8rKvDkDEUCs4yA9PIN/UCC6FBmMaCMmdYaxkDlnjQjBNxCgag2pvQ9S24CM4nwkIHM4iN2bAaPFc29hc6HIuhRUApECesfpBlzDiHd9f54wTC9vCebANYyFVB+CQAiiXS539lVJnkGIRqL1kAZWEhAAPEw1JBVsUHkZ7GQWBSyEEPKWKrR1t+8HYVjAGCBZubzQYY0EqkiZwGTjec8CHCPwCdvzWH1+ICJ7vo2d3T2AdX21mbeikj4wMv1tKeaoKc61YSOZVroe6ujrHd73+kYFhEBE2bdoE07CQzU4/dMcdtz2mlbqShz4SB8CEgOawZnIzFw4NDuzO52edebibAC446jJ18H0PR4eeE8kkRSKRUaV1sDV5cSxgCIFKpRLfunXrmwTEPb19fWhrbUMyloJTrsJ1HTQ2Nrqcc9f3/fn+c8Exm5/F01u2IJVJzZtuxlnVc13leQqCIZiPIbROSrOJ8fFFiVS6uZqfnWhb2IqH77kPH/jwB3H5FZfh+98fQWtrq1Khv1urVeH7PpRSkJETjDMHsDSV2JqJRYs5hUSQeBbaxvlWEUA+ElrkNlhix2wImTErCqdWw8zoGGrK5wrEJRgkeEDYZMHPXCt4viIwRjydQiwa/a12pADUczoA0meEMwcIWzJPlmYAPB8Jz883MIUSTgA4BFA0AwUpDJJxCACeH1hHiUBpPBAgRRA7AOBS4JRKArRW8ABIFkDnvtZQDDAR/F7xvFwimXzwtE0bv69B0IaAZdvBNnIujYKCAJ4TplGYjIMTwfXVKzKoXyoagJAGzjrjTEjx6hWJC45KuWI/8chji13fhxQSBgG+IjiM4NRqtTede97tHa3t/bViFTt27MDE2BTWrFuHmVzWa2ttG+4f6IerAitmUGCVZSKW2rpjxx+Pjo390opE+ua2ckopRKNRXHnllWhoaDimnU2NjWrXtm13lMvl96fiCZAOKE/gHAYTcMvV5AP33f+ZtevWIZ1Ob49EIuNWxMIzzzwDxgOQ5uD+g4jFYohGbRiGiVqtBjti4ezzzj6GLmLb0b4De/c+3bvv0IXxaNyo+QrEASOwW1Su1k7lsvxpKxr9vmmavdKQNYBhYmIcV139NnR2dmFqYgILF7aiq6sb6XQasXgccs9MAccTCaCxvv6Z7tbWya3T5QSzOEABFjc3lQP4y4AwLHQod3Dm6G0FB6AcjIITIxB4WAuBgmsZ59CMwBkxkGaThSJ2KYbIS+L6EkBXR/sOayh3vaPoqK1deC8eEDYRTyIdixejbgWpE2xvOOcUOPPz5YICHpmaixuF4CdR2MZgVRRzNQY4h9Yq+JkxEAuGZC4dw/H8rDSNHU1NTb/wPW+/aZool0ro7e09Kq066LTWwUHSXFMQUMWL7/u1qBJjDNr3sHXrVkTtyKuOIXHOwTg/n7RayVmAWmoBkAoIqaVS0Vm2dOntDQ0N3v5DB3H4yGHc/8D92HjWJlz0lrd4F73lzXd/51vfvkZK2QJg/t1KzjGTzepNGze2L1q0aGB2dlYHJpjBVz62b9+O5cuXBwzqUJlyuRwampoGWxYs2FGt1VZbpiXZXDYJJ0hTolatnvPYo498Y93603bOTGe/mkwmRyK2eRBc49577sXS7mVY0LwAxWIZo6PDaGluhhVNIJ1edUy/M5n02PjI6M3FavWSaCKB8GAUgDNoTZyITs1ms9EUcMnY2Ng3pBRbk8nkLlkzauVKGdu2bkM2O4UzN52FK664EolEAlJKyMH88fP6NYCGeHxsc9L8l1z/4X/qZSkOKxbkzxCDZgRUqzjVKR385OmbPzHJNfzjvMP5pDUdVEKQnIe0mAB6FhzEGaFQrmJr0UPqJYpEANKx2A/O8kcu3l51LinE4gh2tjxUKg1MjuO6tgU//f0li248Ui3CPUHxHJ8UU2EcSTIGBYKnCYYMgBQ/DJAe3UYwBiM8yd0lFcRsEPgQPmOQkkMQQ7lWzdnx2HbLMH+utPoVEETrS6USnn/+edTV1YW1JBiUVvAoIM3y8DnEggDjaz2GkzMG5Xp46KFHsHbNSgjB8Ep3YAhS8Ht7j1xDWq0xBIcmDYcCywRXYfHi7uz0zPTuu+67D3v29mBhUzMWLFiAffv2Y1F3N5Tv32nHYs/C865WRHBJweACIuh3bGBg8INtbW27Gxobc8r35x6MYHWfwEx2Zj4zWWmFBQsW7Ozs6vrajh07buSGASM8I9glH4wzWIaAIeOdu3bt7CRfb1q3el2P41X/pbO7vb9acXfZURsaQO/hPsTSFhZ3tEEaBgqV2jFsitlCEctXrtxy8EjfY9mpqc3pZBLQx75rZlnL87kcspOTf5GJJ+0tW7b8RlrGjeecd+7W+pqjf/qTnyART2LVqlXzlCe5oq0JJxTG9bXxxd+NZ5Ir/35f34dV1QGJOfRDoy6TwQ3LT/3yuph5z4wfomgvEcUCS8QRQows9I0QUmOYABFDZPkSXBHCwMdpyPT6xvTn/2l/3/InJ3KdIAQMAKUApnHe6WsOfXpJ+yfqPXdykhkQJ8C9WGjQ5qwLlArIhhS0iR3VRgrbCHqRVCrCe8ztJg0KiJuTM9O6dWHrs+lM5qb87OzPQcGKXy6X0dPTg0QicRRaRZwBfG7bqBgDJxbeN7SSJ34jvy2+BuMMmXQaXUuWQUj9irrIGEM0Gmvas3NXgpSCNgLYW2oRMNwZIZFIjWx54smNY5NTclFHh9aez0FEpmWxW3/9Gy3ARNOCZu0g8NNkaEeDsw+s+r2795xz/vmbG05ZtTJXLpWOebbreWguFo+Z4EII97LL33qnr9X9B/buWyFtexEACB36bGGqScK2wbho2XtwX5NW3jrJsG1mtnjTurWnPlOuFPsM04BlRaAoOFEyYlrwNM0Tlz1PYenSZX0Xv9n53K9//at/rNRqp0UiEXAVvFvNgv6YQoAbRrujFB55+JEPRWP2FVqpW5Op1K1tbW0PmKZ5DAIpY+aJa58RgKQRrVaT6U9+bf2qf0pPTqw/XCq3m6ahDCEH/qVCPYmWpt7C7P/f2pcHx3Xc6X3d/c4ZDGYGN3jfIniIskhKIkhJlCnqsC1atrwbr2xLWnmdtRMntRsnTlWco1KbzaYqTsoue1XetddbjrxWFIm2KFknKZOWRZPiigcIXhABkASIGwQxwJzvdfcvf/SbAUmAB+z9VamKpGbe9Ov3uvt3fN/3G6tk0aY9Z5DBw3EOK4LAl8GdWksoZV5L5vuox4yXAABw3z2Qrh679/mm2oXDg6PrskTxeZ49eawk2w4n0z1+Mjk8OTIOyxLXvYjFLRKMa0RAUYtxWABCRVDcgBJFVEcpjxGaIgS52a1CJVGUElxpTI5Pwk9Xf/TJHTuetxh/o6Oj40h5coUQCMMQ7e3tSCaTlZiAQBCMw2asAm1xuADTGoEu+4m3YGTcYxZtGkZXgTCnae5NOTmccxz84MA/s8A2ETEESlfGJJUCtyz09vbdIYj+TyqdiimtyLYsBm2Ysql0mmzGVTFXyCjOTIwEU/tR3MB6HM7rBwcHHtags5PZbGXRyDBEbV0dNm1uRT6Xq/ixRITmpubhDw8f/nLXRx/9hzAItgnLus0RBkSqYE5f8w4pWJ7NXebVnf+oe6sS4p6Dhz54a25z49+7nvtW+T4ZAJubjSnUU+57JpNBvCp+cFNr61/99sCBb2Vyk3fUxKpBWhmQLAwsSEXxcF19HbjWc/a8vftfpBvq13uOszyVSr1mWVZv+blaN5MIDQHkgiC3yHc76m2rY+2a20RtdRWOdHQryuYQhDe+AteacYCpqCYAMo2UFREUB4gURfw23AizbA5BfXG571xsSPj7V69cbsVloPraTlM+DBECsG/yEirSTIM4wTRmJm40FsoQITCGbCHfwy2raNmWrUCcGGkQOBhTodaWcOzCvLnN/U31DefXtKza/VFn59E1q1Z/NDI8rEslk3ZnjKFQMAF6IpG4KrBmjBFporAcUwCREKXZEW9aRGIswvTRVW6g1hqO7WDp4mUolko3XI+WZeH5559fkQ2KC23LBo9iTgmC5gA0wXKsBMikjQWDgcWY7I6h2xABnMc5zN8lYOaRDK7QS1RV7du37+n77r3vH9I16ctlF4gDyGcmcKH7HOoaG1AqTLleExMTKJVKfYyxby9dsfxix5mOp8KAVrqeCx79bhjNlUWAZgRR5TucyDl75vQfjAwN1M6dN79RcPsnwNT0OBFa2OS1zPPJ5XJF3/d3Pfn5Pzq7/7f7/2fX2c7lMd9fJLipd+qIYGmyywRiQE1dLWQQrMuF4f/Ys2fPvTt27Pj3qVSqRykF6/5rJrn1BzNLqh2d+mNl5TQohdpF9bBraxFMTOC9738Xbjx+1QN2XVdzzrWGAXTalgXS2ohxMcCyOCNSfP7J9us/+ci+LQCMFVFrWxg8fFi+/uZbEELgcwB23fTbUXEYIMY5bMtCKCUki+gMACZzOWxqbX21u6vrO6Ojo8K2bRZBihgAHSrJLc+VyVRqcu78+ZnW++8r5UtFDA8PIwyCKVeFmV3/3Llz07XbCEyDWBlOVAa6Eplx3JBGQQSmdRTfXW2WbSMzkcHOn7+MdLrmulJcREAs5m8ISqWHdeR229xQSjQDOOMmM05UAXNyIgSmAFKB7ihEp3T0XRVRHcr3oznD+OVxJ1VdvWr+3Hn7K5sMACkVRgYGwcCQqqtBJYaKTEt9LpFMfv+pZ57ZffjQoX95ov1Ea8z3Vhg325yeghmktgRgc4bqqjjL54tbensuYuXqpZIz/gKiEjnD1YsJMItpcnIy3LJ5S9uZU6eeamhtva+3p+erl4ZHaizLWqeZwQcKZhjkxAx0yuPcU0Red3f353fu3Cm/9rWvfT0ej2d+b4U+xjmCQgFHd/0ccF1D6rtqVhTXdAVESE+BAQUxSAUCs/QtuzQAwC2TrlPlyOYWjcBIE4c2bFQWQYQIBMUAFUrUJJKZlkce6XrltdcwnsnAdabwYSzy06WUKJVKmMhkUCqVEPNjV31GSYX3339/ZsngiEZh0TVzwZjpAH+924lIbSjXSq6ZL8YYioUCBoYGsGTJYtMUboYl6TgO9u17b3sul1vuMAZGGqE23xeaYJY5M/QFYlBcQ145xmjMQptHEJC+ah7J7BSwGBDz/SXtJ08+1X3u3DEpZe7KsWYns7htVQt2PPEZTGQylfKA1hpKSQSl0uSypUs/HBkY+Prd99zdsu/X+/68t6dnPlOsTgu0UFSItwnQ3Dw/yxJuGBQ3d53tLG1pCu+ITgAAFl5JREFU3fSBJUSnLqNYALhcA1qaZFKU6Mjn8yiWSoMrFi78f5fHxt5buXLF9mPHjn0xN5mbY9v2GhUliIQGDMHdZFvTiSoM9vc/ufOllwY/+diOb/2TSF2SlMiOGBWZaXwTzkkTkRDcZJiiybaFgJISFEGENF13H55mLMKoWZZlYD23aJzzKRpFOW7jxl0wY7IQBoEd9+N4eNuDeHPPbuSy2Vn9BjBFGQAwbT4IZmfjmiLuksGIlU8iuo6KULloKKLFPJOZJEIMqWRyRveOCPB9vz6bzc4PQ6niriXKC4PBaPSpK3CFjACJKUAtKVVZmkKYGKIi+MJZhQYiIlqIJUTVRx0d6zbcdVesOpnMXakelEgmkc1m8eILLwBgmLg0hrvvuQcbNqxHfV0dLmfGkc1OQimVW7BgwYfCFn+aTKXq5zbO+XL7yROftxxnqcU5CQLTpEGRZBoY9wr5/IP79v36Sdu2/4Iivzqfy2HtHetw//0fx/M/+QmE7WLVylWImjqUYUqDiWT1Cw2NDa+vf2j9ll2v7voTIlooGLvd4hwhmbfXimLnmO/zMx0dG7c+mJv/+y2kqDre9oudgNJROvPqh8ylYgJgMpIFZkQQjCGMjn8OkGBs5pTfdcyKjtxQScyGT8qJM0naAosgQlqjBETqqQySFEJoFFUINx7D9gcfxN69ezE+Pl6hid+KDQ4PVegCMywkrbTWMqqnCVyhtGpgMdekCqLOGEpXqB3Xs6gdDXp7LqC7uwf2DJLARNSan5x8whFcmHiDR/EHEOgI+qU1JDOxTvl5BREagWlD+Q4gTZZTEYixyjwyAIqMzgPXUQbMth+tTiZ/prWW5U2AC4FcLoehkWHYtoPLI5eQz+aQbqxFIpHAgvkLYAkLnHMEQQCtVLZYLGbv3HDnXy5vWXns//7sxS94vnu7EHwJQLCYSUqAMZDmTk9P34o/+epXuWVZioiglUJ1KgkpQ0xOTCCeSCKRqMKFCxfwxB98DoMDgzh16hSUUpJzPlZdXf1qMpU6WtvQ8JXTp045SojlDBACwhwGEUDB4ry1vb39oWkzLdlNw92pz3KgMDEBVcjDtgQYn75z27atwYwGTRn6QWXlTvP3WZ9IWmvoKIN0I7GNa43zKYhQGf4PIILFRFCfyLeSUiIei+GBBx7Au3v2IJvLXeeqVxtFrl95EV0bqzDGhMltVECyFYXXGZVWI9fiVjcaJSVcx8XiRYumEM/RuKoT1fzt3e+szWWzDbZtQUep/PJcRGMoeI5jampRHEdEZnEQKnro5bPJtiyUSiUqSelbtm3q5FobQKsQEBAb2tradnz5j5/dWV2dkOU5910P53t7MDA8ZAqakaqUUhpSSniui7dffx07Hn88olIwOI4DxlihOpl82fW8AcsSP1dKwrGsyildUcoFSyQSiSrbtjPlZI/ruZBKQQhReTahlKiqqkK+kMeceXMhQwlhWZAyRBAEvXUNdT9YlF+E7s7OL8Vivim9mKp9Ge5mj46MNE1bSGk5M+BzJtOM4cQvXkZcma550HLaZzjnnIi4gEmRlqV+TV2JIVQ6Qqnd+olEjBkHXdPVeLtb+WZEo5iCtgBKExQjcDAYGL/5j6RCtR/Dww8+iN2/+hVGRy/BnwHGVDbGOEphUAFNmn+79kQiYhpkE0MYwaUEWAWqdKXSKgPMPc6ySAsAruvAdlxUyG1cQIbhai3VqpBUwJnliOiyJa1AWlFNvKp90dIlz4UECaII10uMc07KiERqUtrinCtoLTjnShHBtm05MDDweF9f3ydtx7EEAAeV+xPFXH5hsVC4DVofUZF7WHKLKJZKFf1vItO9w/M8OI4D13WhlILgHJOZDFzXx+bW1cjnCqhrbsAnHnvo6Pmu7sMnjrQ/alXFTIIn2gYDKUGMbZNKOSyKPS1LwLYEglIkRmpZcF2Xua5LrmeaN0gpcfRYG9avXw+tNJLJJNKpVP9YbOSXXMmva6WgI1hZWRkXnIFpJaYtpO3DF2f1wCRjBsx5nf8vODeq4syQ5cpYdsEFQqMxxwDNp6stXN9MGEEQlph1jMSFkGWEQRmgWVbKYUZlCJqmiqKhUojF4ti+bRtef+utG2pqSyUrJ9D1MG8EYoxxZghVCgxXKK3yys0BURqZs5nrczeyUJZQU1ePlavWoKzqk0qn8OMf/nhtX1/f55yYY+MKCBRnQK5YZCvWr3++tbX1b156ZRfSqdQt4fZyuRzuuusutLS09H7ve9/b3NjQUMd4pBsRbZFciA179+79w6bmpiOI4EKhksiXivB909TO9VxneGh43uj42L1DQ8NzVCjbtdZH4vF4f2ZiAlprxKuqAEUYGhjEnOa58kLXBUk8KmJrQzWvuHdEQ5yZ904IDssSUGSIpfF4PHHp0qXVPT09d42Pj1d1nD6zW2t9RggxyRhDsVhEsRhi28cfxKYtrXhHvBV8eOBAyY7FAaBMhwEvp1eI2LSFpGaF9IrQAjeYcKZJCGJCliFCkR9dplFwpphgioPdeitJizMwKBSlhJjFbs05ZyWtLOKGFaujGMliHLZmyGltumRcQTUHAKUk/KoqPPLoI9i3b9+0xRTFASY4lgqWJa5fWGaMlNZU1ojghAo8JdKL0GV4cDjbFRSZJSzk8nmc7TwLGQTQRGhqbnZGL422BhRYPreB6Hc5Z2BS61R1srumsfFsrlhEMpU0iO6baNQpZVSBJrNZ2K59vqmpMUuBrJNW1G8q0r8oyRCdF84v2fboI34ow4IlBEZHR3Hs2DHYto2qRMKvqko8/PquV78xOjG+xfE8MBlebGps7Ozs6vpGTW3tETCzqVwaG0MqmQYCseJY24m1wndAUTq8UtA2C+mA5zqhEByAUWt1PQ+9PRf8zPj4d4+1n9jU1n5ihWtb/M1f/vJfr7/7ru+na2v/njHWBwDCEhgfH8eRw4cxPDKyXVt2jEWxtdTKJLsiz8px/eK0hUTXw9f8jkZCKM2ZqkCCIiIdB8CIgXOLiPitw/8BkGYATAZLzCJJwRkjHpFAyjFHBawqzKYgoqLotbMQlEqojiewfduDaDvZHmXFzDWEELh0eRyBlOZEu+Hgo0etAWYZ4Q1OMOL/gmtNWkPrjVe8xBW0UvTnK29YExE3u64o+r7fSUR527YxNjaGCz29iEXkw7a24+v7L178Usz1GWPCUOFhYsJSKHV9Q8NLy5Yv35svFLB02VKcPH6iclrMZEopeL6PzWvXoqo6gXg83nXPPZt++sbrr38rnU6z8gmvySQnBGPLz587t2Nly8oXTWwIrLztNsTjcQwODd9+6MDBPysEpY2pVAoAgTN/3uXx8Xk/+tu/ff6Bbdu+6ThOe7yqqock2SMjI/M7Pup4RsqgMcaqKvGOOdBNNpaIxKEP/jHj+R6aGhtNz+BUSuzd86s/3X/w4B/PbZ4L0gCzOHzPazze1vaVJUuWphhjP/U873xtbe346TMdqZd27tyYrE48naxKVPMIOcDIJImYcQcH12/c+O60hVSi36/J8LWmSbEQmnGUYSSmuGUzDk0KUhIxJuRsykhgFhgTUWwxi4UExiyAyjGSzTlsjUi50yAuLOJGBHHaumYIi0XEHQ/rWtZgPDdpoCtKoSadxpnOjzCZzyGZTN4wptEMZClONqJuFMworYI0QqWIcXaPLfhjOqrPMMaIc8ZNpZ0R55zxiJmqAW0Li5PWyGZzlzs7u56Lxd1dUqlu17awZtUqNM1fiGQigb/78Y+XDA8Ne3WpFAIVKR0xBi01uG1bEGLkRPuJCU0ak5OTRvTQtmfM/AFAqVRCfX09Pv3pT2NychKpmjRGhoZfKpH6cwYWtzVDQCY97nCBsBTcsf/Ab7c+9vhjLwouEAYSSxYvRkNDA1544YWG7vPn7p8zZw44DPYwIA3YLphUq3752mt/N3/Zkp62traTQnP3xKkTq4YuDa1tSNdxLvUU1IoxQAMh6d4NGzbs6e8fgNYanWfOGtay66Qv9vV9obqmDowYHAIKEY2iyost6O0+94deMvHZ8+fPd+Qzuf5LY2NzbMddWcgXbN8SCCLKjM2MJxFICUV0rLGp6eS0WRK/ezOEGc1CpADDp9RFOUy2SP/OPxXFMAyz5BxEvwuqLEBVHlOUwVLcjGvG7YQxFMISbNtGMm6AqHV1dThw8AD6Bwfge/4N3VwzdFNMVVGloKy0CsMKFQBaNEMl9Qw2dcIJ8xWEkY/OYBIvxBkmMmO1R4f7/+3a21en4/H4tz3Pmxjs78fhD49gwYIF9dnLlx93PZerKChHdI8BKaqrSR984P77fn358mUwMFQ3xbFk4UIMDg5heGQErutecwsE3/eRrqlBW1sblFJwHAfpdHrojrW3v3a+s+uxuB+Ll91+YgyMM6hSsPHksfall0ZHuxKJasxfMB/jmQyUlJ7vOBlOlASPKCUmzQthW0gkEo1Dvf2NvV3nNzLO4bkuapIpqIjlikjDQzNuqt1gx1avWr0zmUri0ugo9u7dC9u2IbXyQik9C+ZZB9GElt9Hy3XmlwoFnDl1avHJUEMIDtf3YdlWVGuMPJjopA0LwdCmTa3vF3K57LSFZM8i/X0r5jBOgjGSIBAnuDAAzbJGmCVErKziMivT2pAEZ/EVTgSltWDMdIxQkdKqLTgEGSpBSIrLCOZyPZNaQmmFwb5+9PT24t19+1AVjyMei+FmaXyGGyut6rLKJ2OwBL9ijAKCaIpIWNbCi+ICz7XAYM8ZGhj47Llz535zaXR0t+v5WLtmHT784OD67o6Oz7ieKyRMS08QoQRCqBXzXPu9j627/ciVrWASiQTe+8376O29OG0haa0Rdz3MmTMH/X19Fdequbl5qLGu4Rcn247v8GM+RATG1aTBBEdYKK5/9+3dT26+b8tfOK4D23Xgug6UDLUsBkmbWyiRhMbU/SmtwBgQdz14jo0ApkGbFXk3igGONQVNyhXyQ5967FMvuzFvXCoJJjhS6bTJ0nkez2WzpzhRo4SuL/9O+RmAMTjCNkkLL/JQGCCVMlAybkQ+y0qsju2cvG3F8h9mMxk13bVT01PYv49pyYUiLSwNOBF7W3MGIQmkGRTRYc2Y0LPw7RgA4hyWbc86ayekDDVQeeEtM39QzHTd87hFMccFUzfOIjLHQ1go4mJPL1zXRewWFlE0eGIE4pHAhySzwBkMkBeYUvlUV4wREYyJIVIXLe+Q0Wc1GbmrQi6/+s033li3aNHi3U8/+xWsXbcGHR91NIxNZKi+vgGMjGwViMCV0kk/fnjewsXnPvjw8FU1L2EJZAsFJKoTV9WjACAMAxRsgbaTJ64ifVwcGkQA1dXY3ByE+XyMyhApMrFYIQgwNjE+d2PrJoQyxMDFfnScPIOadP3ppSuWvTM6MvJQLBaLqCsGKMq0+W5oNAFMxw9tYEEsmhuKiseFXG6oZeXKn27cuPFn5cya6zoQwmR3LcsaVYQXi1J/MqFNg22TAis/A/NelLtvMD7VPsgyH4IyiQxMXr6cefrZZ//XspW3DUspp2t/xxKz00W7mbmeNyGG7dACg00cJW2OYz+iUUilumOxWFFeR/nnWmMwyYF8Po95CxbMqg+psKxwIpPpPXn6tIHblJVWozoSaTXUWF+/f8nixchOXr9FSdnqamvw4dEjyOXzcN1bQz4QkeVZTswVlslcMsARVnS6lHdFA79RRjAyUoM1VAInyvQFV5xiFO2QIELMcYhzPrls2XIsWLgIg/1DCFUomBChxbllSGwRlIdxJrg4nqypeXFwZOSqTKQmQsz34MU8FLIF4xZHRea7t2yG43nT2leS1rhjw/rjQuO5Q7/Z/2/8pOVdOUZNGoqIAQTHZODR3XkOzXObT2/avPkvf73nHVHKl7Z6XkwUyNTY3DJIlswpbUcKrzpKd5veVBqZ7OTQ2lWr/qGlpeW7xWJBOo5roE2Oh3XrPlbG8uXXrF77huu/89fHPjj0zbrqapSIoBnBETyiUZj3yxaWeQaECr1GEiGQ4UUVhuNf+sIX/vu2B7e9obSCDGdYSPfdf98tvRC3ajU1Nf0/z+d+cubMmb+qranhRuyDoUgK3Hd/W1dX1//KK6/oW83aaa3h+z62bduG1k2bZjUW27apr6/vzbfffvurju+vuFJplRMBnJUcz+uIxWIV1MONjAmBFUuXo1QMZtSbmMk8z+vt7up+uefChU86npMQMJAaU9gzc1CWPb5aDdakXlWEeAZMrCMrMB+FUCm48fSrD2/d+o9KKZw4cRwrV7bA5taELWxhBOmNF80JEGAsmUiMXeg4Oz7TWMcYQxgEEJ4HyzWni9Yajc3NcB1nxkxrMp0O49WJ/doWf0ZkuFfGTSZ4jgPPsgd//IMfQsoQsVgcdXWNCMOQSKn3tz60/RvHjh7/r73nLzQ5vns7B/MlTBwoohOjDJKN2o0hDIMeRax3+/ZHdjU31P0okxm/rMuKQVHhtaGhEaYUDti2XXzqqS/+xzlN9YPv7n73swRa77quH2oCY6JyMl37DAIi5PL5ywsWLvhNIZf/66XLlu23IvHJaW1dANO17J/SfN9Xa9aufeP0mTNrJsYzn4n5fpWhUeCAH/OPOo7zXH9//y1fT2uNeDwOIQQ8z5tV527LstDU1NR1z913P9d29OiXuRBrdRSLZC5PjD/8yCP/bfHy5V1DoyO3dN2ANGzXRVNDI1zHvennAcD3/bNjl8Z29vb2NnHG1xKjWkVkGoVFu2/ZytCdK9Vgy6qsVjmGKH+WcWnb9ntz5s17M1Fd3TYxOYHcxCRGh4bxwNYH3hoeHP7fR48f/XfxqrgQQoBCiVS65pVnn3nmO5XVdY0RzO4cj8Xx+rvvYHB4CPfde5/ZnYszI2DGh0fwwNat+wb6+7/fcer0N+K+LxTMc5vT0PDiM08//b1SqQTShER1FS6PT+Ls2U6USiXdWNfcxi3x7G2rVt47mZl4ZmRkJA1hb2aMWRUYE2ORF0IDYRgc27D+ztMDw5d+mE6lzlmWVZLXUDKICOEVTdeKxQKWNC0J44mq72z9+MdfzWUn//nRI0c+RozdyxnzKiqzMGh3wTnyhcJoIpnc85knnvglaf32a7t2jeZyuUo/XQDTF9K1A/l9LQgCBEFw6hOPfuKbF3t7jx86dGiLY9vB2jWr9/T29L6slLo8G0Co1hpOtBteKb80i/GEK1tanlu5elX7rl27nh0bGW1saGzse/JfffFHt61YsT+TmSCtbo2pqokqRclbxfyJUKhisfhqy5rVPYEMnu7u7pobUdNVuSqvTUJEaS0FOEBaMaWFYoxrAgRjjJSWDAzQCgyMobG5ua9lVcuLo8Mjh8IwVGWYUhgEACH3R089+V8WH1p6/Ffvvrsjm51M3vGxOw4+/tinn2uqbRi92RzG/FhF6itRnQBn7LrxoFIKjPP8l774xf908ODB9n379n0qzOUTd95552927Hj8bxpq0pfLv+d5DrK5QsVllFJCSTUWT8Vfy05mf/XQo4+sHs9kt1zs7ZnXP9C7SCkl4vHExJJlS0/fsf7OExc6u36dHx8veZ6XL5VKiHnOdVEnZTOdA0MU8gVKJ1NdxXzuP3/2iScaiiq8v7Ozc9nFnt6lwWQ24Qimautqh+bMn3t+27btb3Z2dnfZlpW3LGvG1jT/HxTk2n+d3DpTAAAAAElFTkSuQmCC;" vertex="1" parent="fF27TKLsg0fQW4hHukaw-10">
          <mxGeometry x="10" y="10" width="91.31" height="30" as="geometry" />
        </mxCell>
        <mxCell id="fF27TKLsg0fQW4hHukaw-12" value="" style="sketch=0;aspect=fixed;pointerEvents=1;shadow=0;dashed=0;html=1;strokeColor=none;labelPosition=center;verticalLabelPosition=bottom;verticalAlign=top;align=center;fillColor=#00188D;shape=mxgraph.mscae.enterprise.server_generic" vertex="1" parent="fF27TKLsg0fQW4hHukaw-10">
          <mxGeometry x="20" y="60" width="24" height="50" as="geometry" />
        </mxCell>
        <mxCell id="fF27TKLsg0fQW4hHukaw-13" value="" style="sketch=0;aspect=fixed;pointerEvents=1;shadow=0;dashed=0;html=1;strokeColor=none;labelPosition=center;verticalLabelPosition=bottom;verticalAlign=top;align=center;fillColor=#00188D;shape=mxgraph.mscae.enterprise.database_generic" vertex="1" parent="fF27TKLsg0fQW4hHukaw-10">
          <mxGeometry x="110" y="60" width="37" height="50" as="geometry" />
        </mxCell>
        <mxCell id="fF27TKLsg0fQW4hHukaw-14" value="" style="endArrow=classic;html=1;rounded=0;dashed=1;endFill=1;startArrow=none;startFill=0;" edge="1" parent="fF27TKLsg0fQW4hHukaw-10" source="fF27TKLsg0fQW4hHukaw-12" target="fF27TKLsg0fQW4hHukaw-13">
          <mxGeometry width="50" height="50" relative="1" as="geometry">
            <mxPoint x="-20" y="95" as="sourcePoint" />
            <mxPoint x="40" y="95" as="targetPoint" />
          </mxGeometry>
        </mxCell>
        <mxCell id="jU6i-GtazneeOz-2kMC4-0" value="" style="editableCssRules=.*;html=1;shape=image;verticalLabelPosition=bottom;labelBackgroundColor=#ffffff;verticalAlign=top;aspect=fixed;imageAspect=0;image=data:image/svg+xml,PHN2ZyB4bWxucz0iaHR0cDovL3d3dy53My5vcmcvMjAwMC9zdmciIHhtbG5zOnY9Imh0dHBzOi8vdmVjdGEuaW8vbmFubyIgd2lkdGg9IjM2MC4zMDM3NjY4NjA4MzYzIiBoZWlnaHQ9IjM3OC4wNTExNTgwNzc0MDg4IiB2aWV3Qm94PSItMC4wMDAxNjI0MjExNDM2MTM3NTU3IC0wLjAwMDEwMDAwNTk0OTIwNzExNTkyIDk1LjMzMDI2MTIzMDQ2ODc1IDEwMC4wMjYxMDAxNTg2OTE0Ij4mI3hhOzxzdHlsZSB0eXBlPSJ0ZXh0L2NzcyI+JiN4YTsJLnN0MHtmaWxsOiM0Mjg1ZjQ7fSYjeGE7CS5zdDF7ZmlsbDojYWVjYmZhO30mI3hhOwkuc3Qye2ZpbGw6IzY2OWRmNjt9JiN4YTs8L3N0eWxlPiYjeGE7CTxwYXRoIGNsYXNzPSJzdDAiIGQ9Ik03OS45NzEgNzcuNzE1bC03LjM1OSA3LjQ4OCA4LjYzOSA4LjQ5IDcuMzU5LTcuNDg4em0tNjUuMDk2LjA2MWwtOC42NDEgOC40OTIgNy4zNjEgNy40ODggOC42MzktOC40OXoiLz4mI3hhOwk8cGF0aCBjbGFzcz0ic3QxIiBkPSJNNzkuNTUzLjIyMWE1LjI1IDUuMjUgMCAwIDAtMy42NiA4Ljk4NEw4Ni4zODkgMTkuNThhNS4yNSA1LjI1IDAgMCAwIDguOTQxLTMuNzY1IDUuMjUgNS4yNSAwIDAgMC0xLjU2LTMuNzA0TDgzLjI3NSAxLjczOEE1LjI1IDUuMjUgMCAwIDAgNzkuNTUzLjIyMXpNMTUuOTE2IDBhNS4yNSA1LjI1IDAgMCAwLTMuNzIzIDEuNTE2TDEuNjk5IDExLjg5MWE1LjI1IDUuMjUgMCAwIDAtLjA0MyA3LjQyNCA1LjI1IDUuMjUgMCAwIDAgNy40MjQuMDQzTDE5LjU3NiA4Ljk4MkE1LjI1IDUuMjUgMCAwIDAgMTUuOTE2IDB6Ii8+JiN4YTsJPHBhdGggY2xhc3M9InN0MCIgZD0iTTQ4LjEzOCAyNi4yNGMxMy4zNDcgMCAyNS40MzIgMTEuMTM2IDI1LjMxIDI2LjQ4MSAwIDE1LjExLTEyLjI2NyAyNS42NzMtMjUuMTg5IDI1LjY3My0xMS4xNDkgMC0xOC4zMTctNS4xNzEtMjEuOTYtMTAuNzM4bDIxLjgzOS0xNS4wOTd6Ii8+JiN4YTsJPHBhdGggY2xhc3M9InN0MiIgZD0iTTgxLjI1IDkzLjY5M2w0LjY2NCA0LjU4NmE1LjI1IDUuMjUgMCAxIDAgNy4zNjEtNy40OWwtNC42NjYtNC41ODR6TTYuMjM0IDg2LjI2OEwxLjU3IDkwLjg1MWE1LjI1IDUuMjUgMCAwIDAtLjA2NSA3LjQyNCA1LjI1IDUuMjUgMCAwIDAgNy40MjQuMDY0bDQuNjY2LTQuNTg0ek00Ny4zNzEgNS41NzhDMjEuMzQ5IDUuNTc4LjE0NiAyNi43NzkuMTQ2IDUyLjgwMXMyMS4yMDMgNDcuMjI1IDQ3LjIyNSA0Ny4yMjUgNDcuMjI1LTIxLjIwMyA0Ny4yMjUtNDcuMjI1UzczLjM5MyA1LjU3OCA0Ny4zNzEgNS41Nzh6bTAgMTBhMzcuMTUgMzcuMTUgMCAwIDEgMzcuMjI1IDM3LjIyM2MwIDIwLjYxNy0xNi42MDcgMzcuMjI1LTM3LjIyNSAzNy4yMjVTMTAuMTQ2IDczLjQxOCAxMC4xNDYgNTIuODAxYTM3LjE1IDM3LjE1IDAgMCAxIDM3LjIyNS0zNy4yMjN6Ii8+JiN4YTs8L3N2Zz4=;" vertex="1" parent="fF27TKLsg0fQW4hHukaw-10">
          <mxGeometry x="210" y="65" width="38" height="40" as="geometry" />
        </mxCell>
        <mxCell id="fF27TKLsg0fQW4hHukaw-17" value="②" style="text;html=1;align=center;verticalAlign=middle;whiteSpace=wrap;rounded=0;fontSize=17;" vertex="1" parent="fF27TKLsg0fQW4hHukaw-10">
          <mxGeometry x="199" y="35" width="60" height="30" as="geometry" />
        </mxCell>
        <mxCell id="jU6i-GtazneeOz-2kMC4-1" value="①" style="text;html=1;align=center;verticalAlign=middle;whiteSpace=wrap;rounded=0;fontSize=17;" vertex="1" parent="fF27TKLsg0fQW4hHukaw-10">
          <mxGeometry x="44" y="50" width="60" height="30" as="geometry" />
        </mxCell>
        <mxCell id="jU6i-GtazneeOz-2kMC4-2" value="" style="endArrow=classic;html=1;rounded=0;dashed=1;endFill=1;startArrow=classic;startFill=1;" edge="1" parent="fF27TKLsg0fQW4hHukaw-10" source="jU6i-GtazneeOz-2kMC4-0" target="fF27TKLsg0fQW4hHukaw-13">
          <mxGeometry width="50" height="50" relative="1" as="geometry">
            <mxPoint x="380" y="95" as="sourcePoint" />
            <mxPoint x="258" y="95" as="targetPoint" />
          </mxGeometry>
        </mxCell>
        <mxCell id="fF27TKLsg0fQW4hHukaw-16" value="" style="endArrow=classic;html=1;rounded=0;dashed=1;endFill=1;startArrow=classic;startFill=1;" edge="1" parent="fF27TKLsg0fQW4hHukaw-1" source="fF27TKLsg0fQW4hHukaw-5" target="jU6i-GtazneeOz-2kMC4-0">
          <mxGeometry width="50" height="50" relative="1" as="geometry">
            <mxPoint x="-86" y="135" as="sourcePoint" />
            <mxPoint x="-30" y="135" as="targetPoint" />
          </mxGeometry>
        </mxCell>
        <mxCell id="fF27TKLsg0fQW4hHukaw-15" value="③" style="text;html=1;align=center;verticalAlign=middle;whiteSpace=wrap;rounded=0;fontSize=17;" vertex="1" parent="fF27TKLsg0fQW4hHukaw-1">
          <mxGeometry x="350" y="75" width="60" height="30" as="geometry" />
        </mxCell>
      </root>
    </mxGraphModel>
  </diagram>
</mxfile>
